<svg width="211" height="53" viewBox="0 0 211 53" fill="none" xmlns="http://www.w3.org/2000/svg">
<rect width="53" height="53" rx="11" fill="#521096"/>
<circle cx="26.9417" cy="18.1083" r="11.925" fill="#F76540"/>
<circle cx="26.9417" cy="34.0083" r="11.425" stroke="white"/>
<circle cx="26.9417" cy="34.0083" r="9.65833" stroke="white"/>
<circle cx="26.9417" cy="34.0083" r="7.89167" stroke="white"/>
<circle cx="26.9417" cy="34.0083" r="6.125" stroke="white"/>
<circle cx="26.9416" cy="34.0083" r="4.35833" stroke="white"/>
<path d="M74.7091 29.1V25.8H78.4841C79.4341 25.8 80.2758 25.6583 81.0091 25.375C81.7591 25.075 82.3925 24.6583 82.9091 24.125C83.4258 23.5917 83.8175 22.9667 84.0841 22.25C84.3675 21.5167 84.5091 20.7083 84.5091 19.825C84.5091 18.9083 84.3675 18.0917 84.0841 17.375C83.8175 16.6417 83.4258 16.0167 82.9091 15.5C82.3925 14.9833 81.7591 14.5917 81.0091 14.325C80.2758 14.0583 79.4341 13.925 78.4841 13.925H74.7091V10.625H78.2591C79.9091 10.625 81.3508 10.8667 82.5841 11.35C83.8175 11.8333 84.8425 12.5 85.6591 13.35C86.4758 14.1833 87.0841 15.1417 87.4841 16.225C87.9008 17.2917 88.1091 18.4 88.1091 19.55V20.1C88.1091 21.2 87.9008 22.2833 87.4841 23.35C87.0841 24.4167 86.4758 25.3833 85.6591 26.25C84.8425 27.1167 83.8175 27.8083 82.5841 28.325C81.3508 28.8417 79.9091 29.1 78.2591 29.1H74.7091ZM71.6591 29.1V10.625H75.2091V29.1H71.6591ZM96.828 29.475C95.6614 29.475 94.6364 29.275 93.753 28.875C92.8864 28.475 92.1614 27.9417 91.578 27.275C91.0114 26.5917 90.578 25.8333 90.278 25C89.9947 24.1667 89.853 23.3167 89.853 22.45V21.975C89.853 21.075 89.9947 20.2083 90.278 19.375C90.578 18.525 91.0114 17.775 91.578 17.125C92.1614 16.4583 92.878 15.9333 93.728 15.55C94.578 15.15 95.5614 14.95 96.678 14.95C98.1447 14.95 99.3697 15.275 100.353 15.925C101.353 16.5583 102.103 17.4 102.603 18.45C103.103 19.4833 103.353 20.6 103.353 21.8V23.05H91.328V20.925H101.178L100.103 21.975C100.103 21.1083 99.978 20.3667 99.728 19.75C99.478 19.1333 99.0947 18.6583 98.578 18.325C98.078 17.9917 97.4447 17.825 96.678 17.825C95.9114 17.825 95.2614 18 94.728 18.35C94.1947 18.7 93.7864 19.2083 93.503 19.875C93.2364 20.525 93.103 21.3083 93.103 22.225C93.103 23.075 93.2364 23.8333 93.503 24.5C93.7697 25.15 94.178 25.6667 94.728 26.05C95.278 26.4167 95.978 26.6 96.828 26.6C97.678 26.6 98.3697 26.4333 98.903 26.1C99.4364 25.75 99.778 25.325 99.928 24.825H103.128C102.928 25.7583 102.545 26.575 101.978 27.275C101.411 27.975 100.686 28.5167 99.803 28.9C98.9364 29.2833 97.9447 29.475 96.828 29.475ZM112.071 29.475C110.904 29.475 109.879 29.275 108.996 28.875C108.129 28.475 107.404 27.9417 106.821 27.275C106.254 26.5917 105.821 25.8333 105.521 25C105.238 24.1667 105.096 23.3167 105.096 22.45V21.975C105.096 21.075 105.238 20.2083 105.521 19.375C105.821 18.525 106.254 17.775 106.821 17.125C107.404 16.4583 108.121 15.9333 108.971 15.55C109.821 15.15 110.804 14.95 111.921 14.95C113.388 14.95 114.613 15.275 115.596 15.925C116.596 16.5583 117.346 17.4 117.846 18.45C118.346 19.4833 118.596 20.6 118.596 21.8V23.05H106.571V20.925H116.421L115.346 21.975C115.346 21.1083 115.221 20.3667 114.971 19.75C114.721 19.1333 114.338 18.6583 113.821 18.325C113.321 17.9917 112.688 17.825 111.921 17.825C111.154 17.825 110.504 18 109.971 18.35C109.438 18.7 109.029 19.2083 108.746 19.875C108.479 20.525 108.346 21.3083 108.346 22.225C108.346 23.075 108.479 23.8333 108.746 24.5C109.013 25.15 109.421 25.6667 109.971 26.05C110.521 26.4167 111.221 26.6 112.071 26.6C112.921 26.6 113.613 26.4333 114.146 26.1C114.679 25.75 115.021 25.325 115.171 24.825H118.371C118.171 25.7583 117.788 26.575 117.221 27.275C116.654 27.975 115.929 28.5167 115.046 28.9C114.179 29.2833 113.188 29.475 112.071 29.475ZM121.239 34V15.425H123.989V21.275L123.564 21.25C123.631 19.8667 123.914 18.7083 124.414 17.775C124.931 16.8417 125.614 16.15 126.464 15.7C127.314 15.2333 128.264 15 129.314 15C130.281 15 131.147 15.175 131.914 15.525C132.697 15.875 133.364 16.3667 133.914 17C134.481 17.6333 134.914 18.375 135.214 19.225C135.514 20.0583 135.664 20.9583 135.664 21.925V22.45C135.664 23.4333 135.514 24.35 135.214 25.2C134.931 26.0333 134.506 26.775 133.939 27.425C133.389 28.0583 132.722 28.5583 131.939 28.925C131.156 29.275 130.281 29.45 129.314 29.45C128.297 29.45 127.364 29.2417 126.514 28.825C125.681 28.3917 125.006 27.7333 124.489 26.85C123.972 25.95 123.681 24.7917 123.614 23.375L124.714 25.05V34H121.239ZM128.439 26.525C129.189 26.525 129.839 26.3417 130.389 25.975C130.956 25.6083 131.397 25.1 131.714 24.45C132.031 23.7833 132.189 23.0333 132.189 22.2C132.189 21.3333 132.031 20.5833 131.714 19.95C131.397 19.3167 130.956 18.825 130.389 18.475C129.839 18.1083 129.189 17.925 128.439 17.925C127.756 17.925 127.122 18.075 126.539 18.375C125.972 18.675 125.506 19.1167 125.139 19.7C124.789 20.2833 124.614 20.9833 124.614 21.8V22.8C124.614 23.5833 124.797 24.25 125.164 24.8C125.531 25.35 126.006 25.775 126.589 26.075C127.172 26.375 127.789 26.525 128.439 26.525ZM144.959 29.475C143.343 29.475 141.976 29.2167 140.859 28.7C139.759 28.1833 138.918 27.475 138.334 26.575C137.751 25.6583 137.459 24.625 137.459 23.475H140.934C140.934 23.9583 141.068 24.4333 141.334 24.9C141.601 25.35 142.026 25.7167 142.609 26C143.209 26.2833 143.993 26.425 144.959 26.425C145.826 26.425 146.551 26.3 147.134 26.05C147.718 25.8 148.151 25.475 148.434 25.075C148.718 24.6583 148.859 24.1917 148.859 23.675C148.859 23.025 148.584 22.5083 148.034 22.125C147.484 21.725 146.634 21.475 145.484 21.375L143.884 21.25C142.134 21.1 140.734 20.5583 139.684 19.625C138.651 18.675 138.134 17.425 138.134 15.875C138.134 14.7083 138.409 13.7083 138.959 12.875C139.509 12.025 140.276 11.375 141.259 10.925C142.259 10.4583 143.426 10.225 144.759 10.225C146.143 10.225 147.334 10.4667 148.334 10.95C149.334 11.4333 150.109 12.1167 150.659 13C151.209 13.8667 151.484 14.8917 151.484 16.075H148.009C148.009 15.575 147.884 15.1167 147.634 14.7C147.401 14.2667 147.043 13.925 146.559 13.675C146.093 13.4083 145.493 13.275 144.759 13.275C144.059 13.275 143.476 13.3917 143.009 13.625C142.543 13.8583 142.193 14.175 141.959 14.575C141.726 14.975 141.609 15.4083 141.609 15.875C141.609 16.4417 141.818 16.9417 142.234 17.375C142.651 17.7917 143.309 18.0333 144.209 18.1L145.809 18.25C147.109 18.35 148.251 18.625 149.234 19.075C150.218 19.525 150.976 20.1333 151.509 20.9C152.059 21.6667 152.334 22.5917 152.334 23.675C152.334 24.825 152.034 25.8417 151.434 26.725C150.834 27.5917 149.976 28.2667 148.859 28.75C147.759 29.2333 146.459 29.475 144.959 29.475ZM161.57 29.475C160.37 29.475 159.312 29.2833 158.395 28.9C157.478 28.5167 156.703 28 156.07 27.35C155.437 26.6833 154.953 25.9333 154.62 25.1C154.303 24.2667 154.145 23.4 154.145 22.5V21.975C154.145 21.0417 154.312 20.1583 154.645 19.325C154.995 18.475 155.487 17.725 156.12 17.075C156.77 16.4083 157.553 15.8917 158.47 15.525C159.387 15.1417 160.42 14.95 161.57 14.95C162.72 14.95 163.753 15.1417 164.67 15.525C165.587 15.8917 166.362 16.4083 166.995 17.075C167.645 17.725 168.137 18.475 168.47 19.325C168.803 20.1583 168.97 21.0417 168.97 21.975V22.5C168.97 23.4 168.803 24.2667 168.47 25.1C168.153 25.9333 167.678 26.6833 167.045 27.35C166.412 28 165.637 28.5167 164.72 28.9C163.803 29.2833 162.753 29.475 161.57 29.475ZM161.57 26.5C162.42 26.5 163.137 26.3167 163.72 25.95C164.303 25.5667 164.745 25.0583 165.045 24.425C165.345 23.775 165.495 23.0417 165.495 22.225C165.495 21.3917 165.337 20.6583 165.02 20.025C164.72 19.375 164.27 18.8667 163.67 18.5C163.087 18.1167 162.387 17.925 161.57 17.925C160.753 17.925 160.045 18.1167 159.445 18.5C158.862 18.8667 158.412 19.375 158.095 20.025C157.778 20.6583 157.62 21.3917 157.62 22.225C157.62 23.0417 157.77 23.775 158.07 24.425C158.387 25.0583 158.837 25.5667 159.42 25.95C160.003 26.3167 160.72 26.5 161.57 26.5ZM171.753 29V15.425H174.503V21.25H174.253C174.253 19.8667 174.436 18.7167 174.803 17.8C175.17 16.8667 175.711 16.1667 176.428 15.7C177.161 15.2333 178.07 15 179.153 15H179.303C180.92 15 182.145 15.525 182.978 16.575C183.811 17.6083 184.228 19.1583 184.228 21.225V29H180.753V20.925C180.753 20.0917 180.511 19.4167 180.028 18.9C179.561 18.3833 178.911 18.125 178.078 18.125C177.228 18.125 176.536 18.3917 176.003 18.925C175.486 19.4417 175.228 20.1417 175.228 21.025V29H171.753ZM195.929 29V24.975H195.354V20.5C195.354 19.7167 195.162 19.1333 194.779 18.75C194.395 18.3667 193.804 18.175 193.004 18.175C192.587 18.175 192.087 18.1833 191.504 18.2C190.92 18.2167 190.329 18.2417 189.729 18.275C189.145 18.2917 188.62 18.3167 188.154 18.35V15.4C188.537 15.3667 188.97 15.3333 189.454 15.3C189.937 15.2667 190.429 15.25 190.929 15.25C191.445 15.2333 191.929 15.225 192.379 15.225C193.779 15.225 194.937 15.4083 195.854 15.775C196.787 16.1417 197.487 16.7167 197.954 17.5C198.437 18.2833 198.679 19.3083 198.679 20.575V29H195.929ZM191.554 29.35C190.57 29.35 189.704 29.175 188.954 28.825C188.22 28.475 187.645 27.975 187.229 27.325C186.829 26.675 186.629 25.8917 186.629 24.975C186.629 23.975 186.87 23.1583 187.354 22.525C187.854 21.8917 188.545 21.4167 189.429 21.1C190.329 20.7833 191.379 20.625 192.579 20.625H195.729V22.7H192.529C191.729 22.7 191.112 22.9 190.679 23.3C190.262 23.6833 190.054 24.1833 190.054 24.8C190.054 25.4167 190.262 25.9167 190.679 26.3C191.112 26.6833 191.729 26.875 192.529 26.875C193.012 26.875 193.454 26.7917 193.854 26.625C194.27 26.4417 194.612 26.1417 194.879 25.725C195.162 25.2917 195.32 24.7083 195.354 23.975L196.204 24.95C196.12 25.9 195.887 26.7 195.504 27.35C195.137 28 194.62 28.5 193.954 28.85C193.304 29.1833 192.504 29.35 191.554 29.35ZM202.141 29V15.425H204.891V21.175H204.816C204.816 19.225 205.233 17.75 206.066 16.75C206.899 15.75 208.124 15.25 209.741 15.25H210.241V18.275H209.291C208.124 18.275 207.216 18.5917 206.566 19.225C205.933 19.8417 205.616 20.7417 205.616 21.925V29H202.141Z" fill="#292929"/>
<path d="M116.936 45.216C116.408 45.216 115.936 45.1 115.52 44.868C115.112 44.636 114.788 44.3 114.548 43.86C114.308 43.412 114.176 42.876 114.152 42.252H114.464V45H113.552V36.24H114.704V40.5L114.296 41.376C114.328 40.68 114.468 40.112 114.716 39.672C114.964 39.232 115.288 38.908 115.688 38.7C116.096 38.484 116.544 38.376 117.032 38.376C117.488 38.376 117.904 38.464 118.28 38.64C118.656 38.808 118.98 39.044 119.252 39.348C119.524 39.644 119.732 39.992 119.876 40.392C120.02 40.784 120.092 41.208 120.092 41.664V41.88C120.092 42.336 120.016 42.764 119.864 43.164C119.72 43.564 119.508 43.92 119.228 44.232C118.948 44.536 118.612 44.776 118.22 44.952C117.836 45.128 117.408 45.216 116.936 45.216ZM116.804 44.208C117.236 44.208 117.612 44.104 117.932 43.896C118.252 43.688 118.5 43.404 118.676 43.044C118.852 42.676 118.94 42.252 118.94 41.772C118.94 41.292 118.848 40.872 118.664 40.512C118.488 40.152 118.24 39.876 117.92 39.684C117.6 39.484 117.228 39.384 116.804 39.384C116.42 39.384 116.064 39.472 115.736 39.648C115.408 39.816 115.144 40.064 114.944 40.392C114.752 40.712 114.656 41.1 114.656 41.556V42.108C114.656 42.548 114.756 42.924 114.956 43.236C115.156 43.548 115.42 43.788 115.748 43.956C116.076 44.124 116.428 44.208 116.804 44.208ZM121.016 47.496V46.464H121.94C122.212 46.464 122.44 46.428 122.624 46.356C122.816 46.292 122.972 46.18 123.092 46.02C123.22 45.86 123.324 45.648 123.404 45.384L125.42 38.592H126.548L124.412 45.684C124.284 46.108 124.104 46.452 123.872 46.716C123.64 46.988 123.356 47.184 123.02 47.304C122.692 47.432 122.308 47.496 121.868 47.496H121.016ZM122.972 44.856V43.896H124.364V44.856H122.972ZM122.852 44.856L120.56 38.592H121.736L123.932 44.856H122.852ZM129.453 45L132.609 36.24H134.601L137.853 45H136.641L133.701 37.008L134.277 37.296H132.861L133.473 37.008L130.629 45H129.453ZM131.337 42.384L131.733 41.328H135.513L135.909 42.384H131.337ZM139.031 45V36.24H140.183V41.472H139.895C139.895 40.84 139.975 40.296 140.135 39.84C140.303 39.376 140.559 39.02 140.903 38.772C141.247 38.524 141.687 38.4 142.223 38.4H142.271C143.039 38.4 143.619 38.656 144.011 39.168C144.403 39.672 144.599 40.396 144.599 41.34V45H143.447V41.1C143.447 40.58 143.299 40.176 143.003 39.888C142.715 39.6 142.339 39.456 141.875 39.456C141.363 39.456 140.951 39.628 140.639 39.972C140.335 40.308 140.183 40.752 140.183 41.304V45H139.031ZM149.399 45.216C148.839 45.216 148.347 45.12 147.923 44.928C147.499 44.736 147.139 44.484 146.843 44.172C146.555 43.852 146.335 43.496 146.183 43.104C146.039 42.712 145.967 42.312 145.967 41.904V41.688C145.967 41.28 146.043 40.88 146.195 40.488C146.347 40.088 146.571 39.732 146.867 39.42C147.163 39.1 147.523 38.848 147.947 38.664C148.371 38.472 148.855 38.376 149.399 38.376C149.943 38.376 150.427 38.472 150.851 38.664C151.275 38.848 151.635 39.1 151.931 39.42C152.227 39.732 152.451 40.088 152.603 40.488C152.755 40.88 152.831 41.28 152.831 41.688V41.904C152.831 42.312 152.755 42.712 152.603 43.104C152.459 43.496 152.239 43.852 151.943 44.172C151.655 44.484 151.299 44.736 150.875 44.928C150.451 45.12 149.959 45.216 149.399 45.216ZM149.399 44.184C149.879 44.184 150.287 44.08 150.623 43.872C150.967 43.656 151.227 43.368 151.403 43.008C151.587 42.648 151.679 42.244 151.679 41.796C151.679 41.34 151.587 40.932 151.403 40.572C151.219 40.212 150.955 39.928 150.611 39.72C150.275 39.512 149.871 39.408 149.399 39.408C148.935 39.408 148.531 39.512 148.187 39.72C147.843 39.928 147.579 40.212 147.395 40.572C147.211 40.932 147.119 41.34 147.119 41.796C147.119 42.244 147.207 42.648 147.383 43.008C147.567 43.368 147.827 43.656 148.163 43.872C148.507 44.08 148.919 44.184 149.399 44.184ZM153.747 47.496V46.464H154.671C154.943 46.464 155.171 46.428 155.355 46.356C155.547 46.292 155.703 46.18 155.823 46.02C155.951 45.86 156.055 45.648 156.135 45.384L158.151 38.592H159.279L157.143 45.684C157.015 46.108 156.835 46.452 156.603 46.716C156.371 46.988 156.087 47.184 155.751 47.304C155.423 47.432 155.039 47.496 154.599 47.496H153.747ZM155.703 44.856V43.896H157.095V44.856H155.703ZM155.583 44.856L153.291 38.592H154.467L156.663 44.856H155.583ZM164.454 45.216C163.654 45.216 162.97 45.076 162.402 44.796C161.842 44.516 161.39 44.152 161.046 43.704C160.702 43.256 160.45 42.772 160.29 42.252C160.13 41.724 160.05 41.216 160.05 40.728V40.464C160.05 39.936 160.13 39.408 160.29 38.88C160.458 38.352 160.714 37.872 161.058 37.44C161.402 37.008 161.85 36.66 162.402 36.396C162.954 36.132 163.614 36 164.382 36C165.166 36 165.838 36.136 166.398 36.408C166.958 36.68 167.402 37.06 167.73 37.548C168.058 38.036 168.258 38.612 168.33 39.276H167.13C167.066 38.78 166.906 38.372 166.65 38.052C166.394 37.724 166.07 37.48 165.678 37.32C165.294 37.16 164.862 37.08 164.382 37.08C163.862 37.08 163.406 37.172 163.014 37.356C162.622 37.532 162.294 37.784 162.03 38.112C161.774 38.432 161.578 38.804 161.442 39.228C161.314 39.652 161.25 40.112 161.25 40.608C161.25 41.08 161.314 41.528 161.442 41.952C161.578 42.376 161.778 42.752 162.042 43.08C162.314 43.408 162.65 43.668 163.05 43.86C163.45 44.044 163.918 44.136 164.454 44.136C165.206 44.136 165.838 43.948 166.35 43.572C166.862 43.196 167.174 42.652 167.286 41.94H168.486C168.406 42.54 168.202 43.088 167.874 43.584C167.554 44.08 167.106 44.476 166.53 44.772C165.962 45.068 165.27 45.216 164.454 45.216ZM172.713 45.216C172.153 45.216 171.661 45.12 171.237 44.928C170.813 44.736 170.453 44.484 170.157 44.172C169.869 43.852 169.649 43.496 169.497 43.104C169.353 42.712 169.281 42.312 169.281 41.904V41.688C169.281 41.28 169.357 40.88 169.509 40.488C169.661 40.088 169.885 39.732 170.181 39.42C170.477 39.1 170.837 38.848 171.261 38.664C171.685 38.472 172.169 38.376 172.713 38.376C173.257 38.376 173.741 38.472 174.165 38.664C174.589 38.848 174.949 39.1 175.245 39.42C175.541 39.732 175.765 40.088 175.917 40.488C176.069 40.88 176.145 41.28 176.145 41.688V41.904C176.145 42.312 176.069 42.712 175.917 43.104C175.773 43.496 175.553 43.852 175.257 44.172C174.969 44.484 174.613 44.736 174.189 44.928C173.765 45.12 173.273 45.216 172.713 45.216ZM172.713 44.184C173.193 44.184 173.601 44.08 173.937 43.872C174.281 43.656 174.541 43.368 174.717 43.008C174.901 42.648 174.993 42.244 174.993 41.796C174.993 41.34 174.901 40.932 174.717 40.572C174.533 40.212 174.269 39.928 173.925 39.72C173.589 39.512 173.185 39.408 172.713 39.408C172.249 39.408 171.845 39.512 171.501 39.72C171.157 39.928 170.893 40.212 170.709 40.572C170.525 40.932 170.433 41.34 170.433 41.796C170.433 42.244 170.521 42.648 170.697 43.008C170.881 43.368 171.141 43.656 171.477 43.872C171.821 44.08 172.233 44.184 172.713 44.184ZM177.61 45V38.592H178.522V41.34H178.378C178.378 40.708 178.462 40.176 178.63 39.744C178.806 39.304 179.07 38.972 179.422 38.748C179.774 38.516 180.218 38.4 180.754 38.4H180.802C181.61 38.4 182.206 38.652 182.59 39.156C182.982 39.66 183.178 40.388 183.178 41.34V45H182.026V41.1C182.026 40.604 181.886 40.208 181.606 39.912C181.326 39.608 180.942 39.456 180.454 39.456C179.95 39.456 179.542 39.612 179.23 39.924C178.918 40.236 178.762 40.652 178.762 41.172V45H177.61ZM185.026 45V38.592H185.938V41.34H185.794C185.794 40.708 185.878 40.176 186.046 39.744C186.222 39.304 186.486 38.972 186.838 38.748C187.19 38.516 187.634 38.4 188.17 38.4H188.218C189.026 38.4 189.622 38.652 190.006 39.156C190.398 39.66 190.594 40.388 190.594 41.34V45H189.442V41.1C189.442 40.604 189.302 40.208 189.022 39.912C188.742 39.608 188.358 39.456 187.87 39.456C187.366 39.456 186.958 39.612 186.646 39.924C186.334 40.236 186.178 40.652 186.178 41.172V45H185.026ZM195.166 45.216C194.606 45.216 194.122 45.12 193.714 44.928C193.306 44.736 192.974 44.484 192.718 44.172C192.462 43.852 192.27 43.496 192.142 43.104C192.022 42.712 191.962 42.312 191.962 41.904V41.688C191.962 41.272 192.022 40.868 192.142 40.476C192.27 40.084 192.462 39.732 192.718 39.42C192.974 39.1 193.298 38.848 193.69 38.664C194.09 38.472 194.558 38.376 195.094 38.376C195.79 38.376 196.362 38.528 196.81 38.832C197.266 39.128 197.602 39.512 197.818 39.984C198.042 40.456 198.154 40.96 198.154 41.496V42.012H192.466V41.148H197.314L197.05 41.616C197.05 41.16 196.978 40.768 196.834 40.44C196.69 40.104 196.474 39.844 196.186 39.66C195.898 39.476 195.534 39.384 195.094 39.384C194.638 39.384 194.258 39.488 193.954 39.696C193.658 39.904 193.434 40.188 193.282 40.548C193.138 40.908 193.066 41.324 193.066 41.796C193.066 42.252 193.138 42.664 193.282 43.032C193.434 43.392 193.666 43.68 193.978 43.896C194.29 44.104 194.686 44.208 195.166 44.208C195.67 44.208 196.078 44.096 196.39 43.872C196.71 43.648 196.902 43.388 196.966 43.092H198.046C197.958 43.532 197.782 43.912 197.518 44.232C197.254 44.552 196.922 44.796 196.522 44.964C196.122 45.132 195.67 45.216 195.166 45.216ZM202.277 45.216C201.725 45.216 201.245 45.12 200.837 44.928C200.437 44.736 200.105 44.48 199.841 44.16C199.577 43.832 199.377 43.472 199.241 43.08C199.113 42.688 199.049 42.296 199.049 41.904V41.688C199.049 41.28 199.113 40.88 199.241 40.488C199.377 40.096 199.577 39.744 199.841 39.432C200.113 39.112 200.449 38.856 200.849 38.664C201.249 38.472 201.717 38.376 202.253 38.376C202.789 38.376 203.269 38.476 203.693 38.676C204.125 38.876 204.469 39.16 204.725 39.528C204.989 39.888 205.137 40.316 205.169 40.812H204.065C204.009 40.412 203.825 40.08 203.513 39.816C203.201 39.544 202.781 39.408 202.253 39.408C201.797 39.408 201.417 39.512 201.113 39.72C200.809 39.928 200.581 40.212 200.429 40.572C200.277 40.932 200.201 41.34 200.201 41.796C200.201 42.236 200.277 42.64 200.429 43.008C200.581 43.368 200.809 43.656 201.113 43.872C201.425 44.08 201.813 44.184 202.277 44.184C202.637 44.184 202.949 44.12 203.213 43.992C203.477 43.864 203.689 43.692 203.849 43.476C204.009 43.26 204.105 43.016 204.137 42.744H205.241C205.217 43.248 205.069 43.684 204.797 44.052C204.533 44.42 204.181 44.708 203.741 44.916C203.309 45.116 202.821 45.216 202.277 45.216ZM209.043 45.072C208.563 45.072 208.147 45.004 207.795 44.868C207.451 44.732 207.183 44.5 206.991 44.172C206.807 43.836 206.715 43.384 206.715 42.816V36.648H207.819V42.96C207.819 43.304 207.911 43.572 208.095 43.764C208.287 43.948 208.555 44.04 208.899 44.04H210.027V45.072H209.043ZM205.611 39.456V38.592H210.027V39.456H205.611Z" fill="#743FAA"/>
</svg>
