<svg width="44" height="44" viewBox="0 0 44 44" fill="none" xmlns="http://www.w3.org/2000/svg">
<g filter="url(#filter0_dd_160_8678)">
<rect x="4" y="4" width="36" height="36" rx="12" fill="#F1FCFA"/>
<path d="M23.1914 31.042C22.3203 31.5459 21.25 31.5459 20.3789 31.042L14.4062 27.5928C13.5352 27.0889 13 26.1631 13 25.1553V18.2607C13 17.2568 13.5352 16.3271 14.4062 15.8232L20.3789 12.3779C21.25 11.874 22.3203 11.874 23.1914 12.3779L29.1641 15.8271C30.0352 16.3311 30.5703 17.2568 30.5703 18.2646V25.1592C30.5703 26.1631 30.0352 27.0928 29.1641 27.5967L23.1914 31.042ZM23.625 16.5107C23.625 16.2881 23.5039 16.0811 23.3086 15.9678L21.4414 14.9014C21.3633 14.8545 21.2734 14.8232 21.1758 14.8154C21.1562 14.8154 21.1367 14.8115 21.1211 14.8115H21.1172C20.9883 14.8115 20.8711 14.8506 20.7734 14.9131C20.7148 14.9521 20.6602 14.999 20.6172 15.0576C20.5703 15.1162 20.5352 15.1865 20.5156 15.2607C20.5 15.3232 20.4922 15.3818 20.4922 15.4443V21.71V27.335C20.4922 27.6787 20.7734 27.96 21.1172 27.96C21.4609 27.96 21.7422 27.6787 21.7422 27.335V22.335H22.9922C23.3359 22.335 23.6172 22.0537 23.6172 21.71C23.6172 21.3662 23.3359 21.085 22.9922 21.085H21.7422V16.5146L22.6875 17.0537C23.1055 17.292 23.6211 16.9912 23.6211 16.5107H23.625ZM24.25 17.5811C24.25 17.8037 24.3711 18.0107 24.5664 18.124L25.4961 18.6553V25.46C25.4961 25.8037 25.7773 26.085 26.1211 26.085C26.4648 26.085 26.7461 25.8037 26.7461 25.46V19.3662L27.3789 19.7295C27.6797 19.9014 28.0586 19.7959 28.2305 19.4951C28.4023 19.1943 28.2969 18.8154 27.9961 18.6436L25.1836 17.0381C24.7656 16.7998 24.25 17.1006 24.25 17.5811ZM18.6172 16.71C18.2734 16.71 17.9922 16.9912 17.9922 17.335V22.2334L16.7109 18.3857C16.6133 18.0967 16.3203 17.917 16.0195 17.9678C15.7188 18.0186 15.4961 18.2764 15.4961 18.585V24.835C15.4961 25.1787 15.7773 25.46 16.1211 25.46C16.4648 25.46 16.7461 25.1787 16.7461 24.835V22.4365L18.0273 26.2842C18.125 26.5732 18.418 26.7529 18.7188 26.7021C19.0195 26.6514 19.2422 26.3936 19.2422 26.085V17.335C19.2422 16.9912 18.9609 16.71 18.6172 16.71Z" fill="#12A594"/>
<rect x="4.5" y="4.5" width="35" height="35" rx="11.5" stroke="#D9F3EE"/>
</g>
<defs>
<filter id="filter0_dd_160_8678" x="0" y="0" width="44" height="44" filterUnits="userSpaceOnUse" color-interpolation-filters="sRGB">
<feFlood flood-opacity="0" result="BackgroundImageFix"/>
<feColorMatrix in="SourceAlpha" type="matrix" values="0 0 0 0 0 0 0 0 0 0 0 0 0 0 0 0 0 0 127 0" result="hardAlpha"/>
<feOffset dy="1"/>
<feGaussianBlur stdDeviation="1.5"/>
<feColorMatrix type="matrix" values="0 0 0 0 0 0 0 0 0 0.658824 0 0 0 0 0.580392 0 0 0 0.06 0"/>
<feBlend mode="normal" in2="BackgroundImageFix" result="effect1_dropShadow_160_8678"/>
<feColorMatrix in="SourceAlpha" type="matrix" values="0 0 0 0 0 0 0 0 0 0 0 0 0 0 0 0 0 0 127 0" result="hardAlpha"/>
<feOffset/>
<feGaussianBlur stdDeviation="2"/>
<feColorMatrix type="matrix" values="0 0 0 0 0 0 0 0 0 0.658824 0 0 0 0 0.580392 0 0 0 0.1 0"/>
<feBlend mode="normal" in2="effect1_dropShadow_160_8678" result="effect2_dropShadow_160_8678"/>
<feBlend mode="normal" in="SourceGraphic" in2="effect2_dropShadow_160_8678" result="shape"/>
</filter>
</defs>
</svg>
