<svg width="602" height="54" viewBox="0 0 602 54" fill="none" xmlns="http://www.w3.org/2000/svg">
<rect x="1" y="1" width="600" height="52" rx="12" fill="white"/>
<path opacity="0.2" d="M36.25 11C30.4933 11 25.756 15.4458 25.2894 21.0833H24.7917C20.4953 21.0833 17 24.5786 17 28.875C17 33.1714 20.4953 36.6667 24.7917 36.6667H33.0417V33.9167H24.7917C22.0114 33.9167 19.75 31.6553 19.75 28.875C19.75 26.0948 22.0114 23.8333 24.7917 23.8333H26.625C27.3849 23.8333 28 23.2183 28 22.4583V22C28 17.4515 31.7015 13.75 36.25 13.75C40.7985 13.75 44.5 17.4515 44.5 22V22.4583C44.5 23.2183 45.1151 23.8333 45.875 23.8333H47.7083C50.4886 23.8333 52.75 26.0948 52.75 28.875C52.75 31.6553 50.4886 33.9167 47.7083 33.9167H39.4583V36.6667H47.7083C52.0047 36.6667 55.5 33.1714 55.5 28.875C55.5 24.5786 52.0047 21.0833 47.7083 21.0833H47.2106C46.744 15.4458 42.0067 11 36.25 11Z" fill="#9E8CFC"/>
<path d="M35.6279 23.9632C35.8144 23.8683 36.02 23.8172 36.2293 23.8137C36.4439 23.8108 36.6563 23.8582 36.8494 23.9521C37.0424 24.046 37.2108 24.1838 37.3411 24.3544L41.3479 28.3613C41.4799 28.488 41.5852 28.6397 41.6578 28.8076C41.7304 28.9756 41.7687 29.1563 41.7706 29.3392C41.7724 29.5221 41.7378 29.7036 41.6686 29.873C41.5995 30.0423 41.4972 30.1962 41.3679 30.3256C41.2385 30.4549 41.0847 30.5572 40.9153 30.6263C40.7459 30.6955 40.5645 30.7301 40.3815 30.7283C40.1986 30.7264 40.0179 30.6881 39.85 30.6155C39.682 30.5429 39.5303 30.4375 39.4036 30.3056L37.6257 28.5278V38.9584C37.6283 39.1406 37.5947 39.3215 37.5267 39.4906C37.4588 39.6597 37.3579 39.8136 37.23 39.9433C37.102 40.0731 36.9496 40.1761 36.7815 40.2465C36.6134 40.3168 36.433 40.353 36.2507 40.353C36.0685 40.353 35.8881 40.3168 35.72 40.2465C35.5519 40.1761 35.3995 40.0731 35.2715 39.9433C35.1436 39.8136 35.0427 39.6597 34.9748 39.4906C34.9068 39.3215 34.8732 39.1406 34.8757 38.9584V28.5278L33.0979 30.3056C32.9712 30.4375 32.8195 30.5429 32.6515 30.6155C32.4836 30.6881 32.3029 30.7264 32.12 30.7283C31.937 30.7301 31.7556 30.6955 31.5862 30.6263C31.4168 30.5572 31.263 30.4549 31.1336 30.3256C31.0042 30.1962 30.902 30.0423 30.8329 29.873C30.7637 29.7036 30.729 29.5221 30.7309 29.3392C30.7328 29.1563 30.7711 28.9756 30.8437 28.8076C30.9163 28.6397 31.0216 28.488 31.1536 28.3613L35.1532 24.3616C35.2791 24.1944 35.4414 24.0582 35.6279 23.9632Z" fill="#9E8CFC"/>
<path d="M79.375 32H76.233V21.8182H79.5142C80.5019 21.8182 81.3471 22.022 82.0497 22.4297C82.7524 22.834 83.291 23.4157 83.6655 24.1747C84.04 24.9304 84.2273 25.8352 84.2273 26.8892C84.2273 27.9498 84.0384 28.8629 83.6605 29.6286C83.2827 30.3909 82.7325 30.9775 82.0099 31.3885C81.2874 31.7962 80.4091 32 79.375 32ZM77.4659 30.9062H79.2955C80.1373 30.9062 80.835 30.7438 81.3885 30.419C81.942 30.0942 82.3546 29.6319 82.6264 29.032C82.8982 28.4321 83.0341 27.7178 83.0341 26.8892C83.0341 26.0672 82.8999 25.3596 82.6314 24.7663C82.3629 24.1697 81.9619 23.7124 81.4283 23.3942C80.8946 23.0727 80.2301 22.9119 79.4347 22.9119H77.4659V30.9062ZM86.0464 32V24.3636H87.1799V25.517H87.2594C87.3986 25.1392 87.6505 24.8326 88.0151 24.5973C88.3797 24.362 88.7907 24.2443 89.2481 24.2443C89.3342 24.2443 89.442 24.246 89.5712 24.2493C89.7005 24.2526 89.7983 24.2576 89.8645 24.2642V25.4574C89.8248 25.4474 89.7336 25.4325 89.5911 25.4126C89.4519 25.3894 89.3044 25.3778 89.1486 25.3778C88.7774 25.3778 88.446 25.4557 88.1543 25.6115C87.866 25.764 87.6373 25.9761 87.4682 26.2479C87.3025 26.5163 87.2197 26.8229 87.2197 27.1676V32H86.0464ZM94.0352 32.1591C93.3458 32.1591 92.7409 31.995 92.2206 31.6669C91.7035 31.3388 91.2992 30.8797 91.0075 30.2898C90.7191 29.6998 90.575 29.0104 90.575 28.2216C90.575 27.4261 90.7191 26.7318 91.0075 26.1385C91.2992 25.5452 91.7035 25.0845 92.2206 24.7564C92.7409 24.4283 93.3458 24.2642 94.0352 24.2642C94.7246 24.2642 95.3278 24.4283 95.8449 24.7564C96.3652 25.0845 96.7696 25.5452 97.0579 26.1385C97.3496 26.7318 97.4954 27.4261 97.4954 28.2216C97.4954 29.0104 97.3496 29.6998 97.0579 30.2898C96.7696 30.8797 96.3652 31.3388 95.8449 31.6669C95.3278 31.995 94.7246 32.1591 94.0352 32.1591ZM94.0352 31.1051C94.5589 31.1051 94.9897 30.9709 95.3278 30.7024C95.6659 30.4339 95.9161 30.081 96.0785 29.6435C96.2409 29.206 96.3221 28.732 96.3221 28.2216C96.3221 27.7112 96.2409 27.2356 96.0785 26.7947C95.9161 26.3539 95.6659 25.9976 95.3278 25.7259C94.9897 25.4541 94.5589 25.3182 94.0352 25.3182C93.5115 25.3182 93.0807 25.4541 92.7426 25.7259C92.4045 25.9976 92.1543 26.3539 91.9919 26.7947C91.8295 27.2356 91.7483 27.7112 91.7483 28.2216C91.7483 28.732 91.8295 29.206 91.9919 29.6435C92.1543 30.081 92.4045 30.4339 92.7426 30.7024C93.0807 30.9709 93.5115 31.1051 94.0352 31.1051ZM99.1964 34.8636V24.3636H100.33V25.5767H100.469C100.555 25.4441 100.675 25.2751 100.827 25.0696C100.983 24.8608 101.205 24.6752 101.493 24.5128C101.785 24.3471 102.179 24.2642 102.677 24.2642C103.32 24.2642 103.886 24.425 104.377 24.7464C104.867 25.0679 105.25 25.5237 105.525 26.1136C105.8 26.7036 105.938 27.3996 105.938 28.2017C105.938 29.0104 105.8 29.7114 105.525 30.3047C105.25 30.8946 104.869 31.352 104.382 31.6768C103.895 31.9983 103.333 32.1591 102.696 32.1591C102.206 32.1591 101.813 32.0779 101.518 31.9155C101.223 31.7498 100.996 31.5625 100.837 31.3537C100.678 31.1416 100.555 30.9659 100.469 30.8267H100.37V34.8636H99.1964ZM100.35 28.1818C100.35 28.7585 100.434 29.2673 100.603 29.7081C100.772 30.1456 101.019 30.4886 101.344 30.7372C101.669 30.9825 102.067 31.1051 102.537 31.1051C103.028 31.1051 103.437 30.9759 103.765 30.7173C104.097 30.4555 104.345 30.1042 104.511 29.6634C104.68 29.2192 104.765 28.7254 104.765 28.1818C104.765 27.6449 104.682 27.161 104.516 26.7301C104.354 26.2959 104.107 25.9529 103.775 25.701C103.447 25.4458 103.035 25.3182 102.537 25.3182C102.06 25.3182 101.659 25.4392 101.334 25.6811C101.009 25.9197 100.764 26.2545 100.598 26.6854C100.433 27.1129 100.35 27.6117 100.35 28.1818ZM112.34 32.0795C112.095 32.0795 111.885 31.9917 111.709 31.8161C111.533 31.6404 111.445 31.4299 111.445 31.1847C111.445 30.9394 111.533 30.7289 111.709 30.5533C111.885 30.3776 112.095 30.2898 112.34 30.2898C112.586 30.2898 112.796 30.3776 112.972 30.5533C113.147 30.7289 113.235 30.9394 113.235 31.1847C113.235 31.3471 113.194 31.4962 113.111 31.6321C113.031 31.768 112.924 31.8774 112.788 31.9602C112.655 32.0398 112.506 32.0795 112.34 32.0795ZM118.353 32.1591C117.637 32.1591 117.021 31.9901 116.504 31.652C115.986 31.3139 115.589 30.8482 115.31 30.255C115.032 29.6617 114.893 28.9839 114.893 28.2216C114.893 27.446 115.035 26.7616 115.32 26.1683C115.609 25.5717 116.01 25.1061 116.523 24.7713C117.04 24.4332 117.644 24.2642 118.333 24.2642C118.87 24.2642 119.354 24.3636 119.785 24.5625C120.216 24.7614 120.569 25.0398 120.844 25.3977C121.119 25.7557 121.289 26.1733 121.356 26.6506H120.182C120.093 26.3026 119.894 25.9943 119.586 25.7259C119.281 25.4541 118.87 25.3182 118.353 25.3182C117.896 25.3182 117.495 25.4375 117.15 25.6761C116.808 25.9115 116.542 26.2446 116.349 26.6754C116.16 27.103 116.066 27.6051 116.066 28.1818C116.066 28.7718 116.159 29.2855 116.344 29.723C116.533 30.1605 116.798 30.5002 117.14 30.7422C117.485 30.9841 117.889 31.1051 118.353 31.1051C118.658 31.1051 118.935 31.0521 119.183 30.946C119.432 30.84 119.642 30.6875 119.815 30.4886C119.987 30.2898 120.11 30.0511 120.182 29.7727H121.356C121.289 30.2235 121.125 30.6295 120.864 30.9908C120.605 31.3487 120.262 31.6338 119.834 31.8459C119.41 32.0547 118.916 32.1591 118.353 32.1591ZM128.39 26.0739L127.336 26.3722C127.27 26.1965 127.172 26.0258 127.043 25.8601C126.917 25.6911 126.744 25.5518 126.526 25.4425C126.307 25.3331 126.027 25.2784 125.686 25.2784C125.218 25.2784 124.829 25.3861 124.517 25.6016C124.209 25.8137 124.055 26.0838 124.055 26.4119C124.055 26.7036 124.161 26.9339 124.373 27.103C124.585 27.272 124.917 27.4129 125.367 27.5256L126.501 27.804C127.184 27.9697 127.692 28.2232 128.027 28.5646C128.362 28.9027 128.529 29.3385 128.529 29.8722C128.529 30.3097 128.403 30.7008 128.151 31.0455C127.903 31.3902 127.555 31.6619 127.107 31.8608C126.66 32.0597 126.14 32.1591 125.546 32.1591C124.767 32.1591 124.123 31.9901 123.612 31.652C123.102 31.3139 122.779 30.8201 122.643 30.1705L123.757 29.892C123.863 30.303 124.063 30.6113 124.358 30.8168C124.656 31.0223 125.046 31.125 125.526 31.125C126.073 31.125 126.507 31.009 126.829 30.777C127.154 30.5417 127.316 30.2599 127.316 29.9318C127.316 29.6667 127.223 29.4446 127.038 29.2656C126.852 29.0833 126.567 28.9474 126.183 28.858L124.91 28.5597C124.211 28.3939 123.697 28.1371 123.369 27.7891C123.044 27.4377 122.882 26.9986 122.882 26.4716C122.882 26.0407 123.003 25.6596 123.244 25.3281C123.49 24.9967 123.823 24.7365 124.244 24.5476C124.668 24.3587 125.149 24.2642 125.686 24.2642C126.441 24.2642 127.034 24.4299 127.465 24.7614C127.9 25.0928 128.208 25.5303 128.39 26.0739ZM136.45 24.3636L133.626 32H132.433L129.609 24.3636H130.882L132.99 30.4489H133.069L135.177 24.3636H136.45ZM142.929 27.4062V32H141.756V21.8182H142.929V25.5568H143.029C143.208 25.1624 143.476 24.8492 143.834 24.6172C144.195 24.3819 144.676 24.2642 145.276 24.2642C145.796 24.2642 146.252 24.3686 146.643 24.5774C147.034 24.7829 147.337 25.0994 147.553 25.527C147.772 25.9512 147.881 26.4915 147.881 27.1477V32H146.708V27.2273C146.708 26.6207 146.55 26.1518 146.235 25.8203C145.924 25.4856 145.491 25.3182 144.938 25.3182C144.553 25.3182 144.209 25.3994 143.904 25.5618C143.602 25.7242 143.363 25.9612 143.188 26.2727C143.015 26.5843 142.929 26.9621 142.929 27.4062ZM153.139 32.1591C152.403 32.1591 151.769 31.9967 151.235 31.6719C150.705 31.3438 150.295 30.8864 150.007 30.2997C149.722 29.7098 149.579 29.0237 149.579 28.2415C149.579 27.4593 149.722 26.7699 150.007 26.1733C150.295 25.5734 150.696 25.1061 151.21 24.7713C151.727 24.4332 152.33 24.2642 153.02 24.2642C153.417 24.2642 153.81 24.3305 154.198 24.4631C154.586 24.5956 154.939 24.8111 155.257 25.1094C155.575 25.4044 155.829 25.7955 156.018 26.2827C156.207 26.7699 156.301 27.3698 156.301 28.0824V28.5795H150.415V27.5653H155.108C155.108 27.1345 155.022 26.75 154.849 26.4119C154.68 26.0739 154.438 25.8071 154.123 25.6115C153.812 25.416 153.444 25.3182 153.02 25.3182C152.552 25.3182 152.148 25.4342 151.807 25.6662C151.469 25.8949 151.208 26.1932 151.026 26.5611C150.844 26.929 150.753 27.3234 150.753 27.7443V28.4205C150.753 28.9972 150.852 29.486 151.051 29.8871C151.253 30.2848 151.533 30.5881 151.891 30.7969C152.249 31.0024 152.665 31.1051 153.139 31.1051C153.447 31.1051 153.726 31.062 153.974 30.9759C154.226 30.8864 154.443 30.7538 154.626 30.5781C154.808 30.3991 154.949 30.1771 155.048 29.9119L156.182 30.2301C156.062 30.6146 155.862 30.9527 155.58 31.2443C155.298 31.5327 154.95 31.758 154.536 31.9205C154.122 32.0795 153.656 32.1591 153.139 32.1591ZM157.996 32V24.3636H159.129V25.517H159.209C159.348 25.1392 159.6 24.8326 159.965 24.5973C160.329 24.362 160.74 24.2443 161.198 24.2443C161.284 24.2443 161.391 24.246 161.521 24.2493C161.65 24.2526 161.748 24.2576 161.814 24.2642V25.4574C161.774 25.4474 161.683 25.4325 161.541 25.4126C161.401 25.3894 161.254 25.3778 161.098 25.3778C160.727 25.3778 160.395 25.4557 160.104 25.6115C159.815 25.764 159.587 25.9761 159.418 26.2479C159.252 26.5163 159.169 26.8229 159.169 27.1676V32H157.996ZM166.084 32.1591C165.348 32.1591 164.714 31.9967 164.18 31.6719C163.65 31.3438 163.24 30.8864 162.952 30.2997C162.667 29.7098 162.524 29.0237 162.524 28.2415C162.524 27.4593 162.667 26.7699 162.952 26.1733C163.24 25.5734 163.641 25.1061 164.155 24.7713C164.672 24.4332 165.275 24.2642 165.965 24.2642C166.362 24.2642 166.755 24.3305 167.143 24.4631C167.531 24.5956 167.884 24.8111 168.202 25.1094C168.52 25.4044 168.774 25.7955 168.963 26.2827C169.152 26.7699 169.246 27.3698 169.246 28.0824V28.5795H163.36V27.5653H168.053C168.053 27.1345 167.967 26.75 167.794 26.4119C167.625 26.0739 167.383 25.8071 167.068 25.6115C166.757 25.416 166.389 25.3182 165.965 25.3182C165.497 25.3182 165.093 25.4342 164.752 25.6662C164.414 25.8949 164.153 26.1932 163.971 26.5611C163.789 26.929 163.698 27.3234 163.698 27.7443V28.4205C163.698 28.9972 163.797 29.486 163.996 29.8871C164.198 30.2848 164.478 30.5881 164.836 30.7969C165.194 31.0024 165.61 31.1051 166.084 31.1051C166.392 31.1051 166.671 31.062 166.919 30.9759C167.171 30.8864 167.388 30.7538 167.571 30.5781C167.753 30.3991 167.894 30.1771 167.993 29.9119L169.127 30.2301C169.007 30.6146 168.807 30.9527 168.525 31.2443C168.243 31.5327 167.895 31.758 167.481 31.9205C167.067 32.0795 166.601 32.1591 166.084 32.1591ZM177.891 32.1591C177.201 32.1591 176.596 31.995 176.076 31.6669C175.559 31.3388 175.155 30.8797 174.863 30.2898C174.575 29.6998 174.43 29.0104 174.43 28.2216C174.43 27.4261 174.575 26.7318 174.863 26.1385C175.155 25.5452 175.559 25.0845 176.076 24.7564C176.596 24.4283 177.201 24.2642 177.891 24.2642C178.58 24.2642 179.183 24.4283 179.7 24.7564C180.221 25.0845 180.625 25.5452 180.913 26.1385C181.205 26.7318 181.351 27.4261 181.351 28.2216C181.351 29.0104 181.205 29.6998 180.913 30.2898C180.625 30.8797 180.221 31.3388 179.7 31.6669C179.183 31.995 178.58 32.1591 177.891 32.1591ZM177.891 31.1051C178.414 31.1051 178.845 30.9709 179.183 30.7024C179.521 30.4339 179.772 30.081 179.934 29.6435C180.096 29.206 180.178 28.732 180.178 28.2216C180.178 27.7112 180.096 27.2356 179.934 26.7947C179.772 26.3539 179.521 25.9976 179.183 25.7259C178.845 25.4541 178.414 25.3182 177.891 25.3182C177.367 25.3182 176.936 25.4541 176.598 25.7259C176.26 25.9976 176.01 26.3539 175.847 26.7947C175.685 27.2356 175.604 27.7112 175.604 28.2216C175.604 28.732 175.685 29.206 175.847 29.6435C176.01 30.081 176.26 30.4339 176.598 30.7024C176.936 30.9709 177.367 31.1051 177.891 31.1051ZM183.052 32V24.3636H184.185V25.517H184.265C184.404 25.1392 184.656 24.8326 185.021 24.5973C185.385 24.362 185.796 24.2443 186.254 24.2443C186.34 24.2443 186.447 24.246 186.577 24.2493C186.706 24.2526 186.804 24.2576 186.87 24.2642V25.4574C186.83 25.4474 186.739 25.4325 186.597 25.4126C186.457 25.3894 186.31 25.3778 186.154 25.3778C185.783 25.3778 185.451 25.4557 185.16 25.6115C184.871 25.764 184.643 25.9761 184.474 26.2479C184.308 26.5163 184.225 26.8229 184.225 27.1676V32H183.052ZM195.24 32.1491C194.458 32.1491 193.785 31.9834 193.221 31.652C192.661 31.3172 192.23 30.8532 191.929 30.2599C191.631 29.6667 191.481 28.9839 191.481 28.2116C191.481 27.4295 191.632 26.7434 191.934 26.1534C192.239 25.5601 192.671 25.0978 193.231 24.7663C193.792 24.4316 194.458 24.2642 195.23 24.2642C195.896 24.2642 196.479 24.3852 196.98 24.6271C197.48 24.8691 197.877 25.2088 198.168 25.6463C198.46 26.0838 198.621 26.5975 198.65 27.1875H196.652C196.595 26.8063 196.446 26.4998 196.204 26.2678C195.966 26.0324 195.653 25.9148 195.265 25.9148C194.937 25.9148 194.65 26.0043 194.405 26.1832C194.163 26.3589 193.974 26.6158 193.838 26.9538C193.702 27.2919 193.634 27.7012 193.634 28.1818C193.634 28.669 193.7 29.0833 193.833 29.4247C193.969 29.7661 194.159 30.0263 194.405 30.2053C194.65 30.3842 194.937 30.4737 195.265 30.4737C195.507 30.4737 195.724 30.424 195.916 30.3246C196.112 30.2251 196.272 30.081 196.398 29.892C196.528 29.6998 196.612 29.4695 196.652 29.201H198.65C198.617 29.7843 198.458 30.2981 198.173 30.7422C197.891 31.183 197.502 31.5277 197.005 31.7763C196.508 32.0249 195.919 32.1491 195.24 32.1491ZM202.034 21.8182V32H199.916V21.8182H202.034ZM203.641 32V24.3636H205.759V32H203.641ZM204.705 23.3793C204.39 23.3793 204.12 23.2749 203.894 23.0661C203.672 22.8539 203.561 22.6004 203.561 22.3054C203.561 22.0137 203.672 21.7635 203.894 21.5547C204.12 21.3426 204.39 21.2365 204.705 21.2365C205.02 21.2365 205.288 21.3426 205.51 21.5547C205.736 21.7635 205.848 22.0137 205.848 22.3054C205.848 22.6004 205.736 22.8539 205.51 23.0661C205.288 23.2749 205.02 23.3793 204.705 23.3793ZM210.816 32.1491C210.033 32.1491 209.361 31.9834 208.797 31.652C208.237 31.3172 207.806 30.8532 207.505 30.2599C207.206 29.6667 207.057 28.9839 207.057 28.2116C207.057 27.4295 207.208 26.7434 207.51 26.1534C207.814 25.5601 208.247 25.0978 208.807 24.7663C209.367 24.4316 210.033 24.2642 210.806 24.2642C211.472 24.2642 212.055 24.3852 212.556 24.6271C213.056 24.8691 213.452 25.2088 213.744 25.6463C214.036 26.0838 214.196 26.5975 214.226 27.1875H212.228C212.171 26.8063 212.022 26.4998 211.78 26.2678C211.541 26.0324 211.228 25.9148 210.84 25.9148C210.512 25.9148 210.226 26.0043 209.98 26.1832C209.738 26.3589 209.55 26.6158 209.414 26.9538C209.278 27.2919 209.21 27.7012 209.21 28.1818C209.21 28.669 209.276 29.0833 209.409 29.4247C209.545 29.7661 209.735 30.0263 209.98 30.2053C210.226 30.3842 210.512 30.4737 210.84 30.4737C211.082 30.4737 211.3 30.424 211.492 30.3246C211.687 30.2251 211.848 30.081 211.974 29.892C212.103 29.6998 212.188 29.4695 212.228 29.201H214.226C214.193 29.7843 214.034 30.2981 213.749 30.7422C213.467 31.183 213.078 31.5277 212.581 31.7763C212.083 32.0249 211.495 32.1491 210.816 32.1491ZM217.411 29.8026L217.416 27.2621H217.724L220.17 24.3636H222.602L219.315 28.2017H218.813L217.411 29.8026ZM215.492 32V21.8182H217.61V32H215.492ZM220.265 32L218.018 28.674L219.43 27.1776L222.746 32H220.265ZM230.948 24.3636V25.358H226.99V24.3636H230.948ZM228.144 22.5341H229.317V29.8125C229.317 30.1439 229.365 30.3925 229.461 30.5582C229.561 30.7206 229.687 30.83 229.839 30.8864C229.995 30.9394 230.159 30.9659 230.331 30.9659C230.461 30.9659 230.567 30.9593 230.649 30.946C230.732 30.9295 230.799 30.9162 230.848 30.9062L231.087 31.9602C231.007 31.9901 230.896 32.0199 230.754 32.0497C230.611 32.0829 230.431 32.0994 230.212 32.0994C229.881 32.0994 229.556 32.0282 229.238 31.8857C228.923 31.7431 228.661 31.526 228.452 31.2344C228.247 30.9427 228.144 30.5748 228.144 30.1307V22.5341ZM235.643 32.1591C234.954 32.1591 234.349 31.995 233.828 31.6669C233.311 31.3388 232.907 30.8797 232.615 30.2898C232.327 29.6998 232.183 29.0104 232.183 28.2216C232.183 27.4261 232.327 26.7318 232.615 26.1385C232.907 25.5452 233.311 25.0845 233.828 24.7564C234.349 24.4283 234.954 24.2642 235.643 24.2642C236.332 24.2642 236.936 24.4283 237.453 24.7564C237.973 25.0845 238.377 25.5452 238.666 26.1385C238.957 26.7318 239.103 27.4261 239.103 28.2216C239.103 29.0104 238.957 29.6998 238.666 30.2898C238.377 30.8797 237.973 31.3388 237.453 31.6669C236.936 31.995 236.332 32.1591 235.643 32.1591ZM235.643 31.1051C236.167 31.1051 236.597 30.9709 236.936 30.7024C237.274 30.4339 237.524 30.081 237.686 29.6435C237.849 29.206 237.93 28.732 237.93 28.2216C237.93 27.7112 237.849 27.2356 237.686 26.7947C237.524 26.3539 237.274 25.9976 236.936 25.7259C236.597 25.4541 236.167 25.3182 235.643 25.3182C235.119 25.3182 234.688 25.4541 234.35 25.7259C234.012 25.9976 233.762 26.3539 233.6 26.7947C233.437 27.2356 233.356 27.7112 233.356 28.2216C233.356 28.732 233.437 29.206 233.6 29.6435C233.762 30.081 234.012 30.4339 234.35 30.7024C234.688 30.9709 235.119 31.1051 235.643 31.1051ZM249.464 28.8778V24.3636H250.637V32H249.464V30.7074H249.385C249.206 31.0952 248.927 31.425 248.549 31.6967C248.172 31.9652 247.694 32.0994 247.118 32.0994C246.64 32.0994 246.216 31.995 245.845 31.7862C245.474 31.5741 245.182 31.2559 244.97 30.8317C244.758 30.4041 244.652 29.8655 244.652 29.2159V24.3636H245.825V29.1364C245.825 29.6932 245.981 30.1373 246.292 30.4688C246.607 30.8002 247.008 30.9659 247.495 30.9659C247.787 30.9659 248.084 30.8913 248.385 30.7422C248.69 30.593 248.945 30.3643 249.151 30.0561C249.36 29.7479 249.464 29.3551 249.464 28.8778ZM252.696 34.8636V24.3636H253.83V25.5767H253.969C254.055 25.4441 254.175 25.2751 254.327 25.0696C254.483 24.8608 254.705 24.6752 254.993 24.5128C255.285 24.3471 255.679 24.2642 256.177 24.2642C256.82 24.2642 257.386 24.425 257.877 24.7464C258.367 25.0679 258.75 25.5237 259.025 26.1136C259.3 26.7036 259.438 27.3996 259.438 28.2017C259.438 29.0104 259.3 29.7114 259.025 30.3047C258.75 30.8946 258.369 31.352 257.882 31.6768C257.395 31.9983 256.833 32.1591 256.196 32.1591C255.706 32.1591 255.313 32.0779 255.018 31.9155C254.723 31.7498 254.496 31.5625 254.337 31.3537C254.178 31.1416 254.055 30.9659 253.969 30.8267H253.87V34.8636H252.696ZM253.85 28.1818C253.85 28.7585 253.934 29.2673 254.103 29.7081C254.272 30.1456 254.519 30.4886 254.844 30.7372C255.169 30.9825 255.567 31.1051 256.037 31.1051C256.528 31.1051 256.937 30.9759 257.265 30.7173C257.597 30.4555 257.845 30.1042 258.011 29.6634C258.18 29.2192 258.265 28.7254 258.265 28.1818C258.265 27.6449 258.182 27.161 258.016 26.7301C257.854 26.2959 257.607 25.9529 257.275 25.701C256.947 25.4458 256.535 25.3182 256.037 25.3182C255.56 25.3182 255.159 25.4392 254.834 25.6811C254.509 25.9197 254.264 26.2545 254.098 26.6854C253.933 27.1129 253.85 27.6117 253.85 28.1818ZM262.311 21.8182V32H261.138V21.8182H262.311ZM267.472 32.1591C266.783 32.1591 266.178 31.995 265.658 31.6669C265.141 31.3388 264.736 30.8797 264.445 30.2898C264.156 29.6998 264.012 29.0104 264.012 28.2216C264.012 27.4261 264.156 26.7318 264.445 26.1385C264.736 25.5452 265.141 25.0845 265.658 24.7564C266.178 24.4283 266.783 24.2642 267.472 24.2642C268.162 24.2642 268.765 24.4283 269.282 24.7564C269.802 25.0845 270.207 25.5452 270.495 26.1385C270.787 26.7318 270.932 27.4261 270.932 28.2216C270.932 29.0104 270.787 29.6998 270.495 30.2898C270.207 30.8797 269.802 31.3388 269.282 31.6669C268.765 31.995 268.162 32.1591 267.472 32.1591ZM267.472 31.1051C267.996 31.1051 268.427 30.9709 268.765 30.7024C269.103 30.4339 269.353 30.081 269.516 29.6435C269.678 29.206 269.759 28.732 269.759 28.2216C269.759 27.7112 269.678 27.2356 269.516 26.7947C269.353 26.3539 269.103 25.9976 268.765 25.7259C268.427 25.4541 267.996 25.3182 267.472 25.3182C266.949 25.3182 266.518 25.4541 266.18 25.7259C265.842 25.9976 265.591 26.3539 265.429 26.7947C265.267 27.2356 265.185 27.7112 265.185 28.2216C265.185 28.732 265.267 29.206 265.429 29.6435C265.591 30.081 265.842 30.4339 266.18 30.7024C266.518 30.9709 266.949 31.1051 267.472 31.1051ZM274.881 32.179C274.397 32.179 273.958 32.0878 273.563 31.9055C273.169 31.7199 272.856 31.4531 272.624 31.1051C272.392 30.7538 272.276 30.3295 272.276 29.8324C272.276 29.3949 272.362 29.0402 272.534 28.7685C272.706 28.4934 272.937 28.2779 273.225 28.1222C273.513 27.9664 273.832 27.8504 274.18 27.7741C274.531 27.6946 274.884 27.6316 275.239 27.5852C275.703 27.5256 276.079 27.4808 276.367 27.451C276.659 27.4179 276.871 27.3632 277.004 27.2869C277.139 27.2107 277.207 27.0781 277.207 26.8892V26.8494C277.207 26.3589 277.073 25.9777 276.805 25.706C276.539 25.4342 276.137 25.2983 275.597 25.2983C275.036 25.2983 274.597 25.4209 274.279 25.6662C273.961 25.9115 273.737 26.1733 273.608 26.4517L272.494 26.054C272.693 25.59 272.958 25.2287 273.29 24.9702C273.624 24.7083 273.989 24.526 274.383 24.4233C274.781 24.3172 275.172 24.2642 275.557 24.2642C275.802 24.2642 276.084 24.294 276.402 24.3537C276.723 24.41 277.033 24.5277 277.332 24.7067C277.633 24.8857 277.883 25.1558 278.082 25.517C278.281 25.8783 278.381 26.3622 278.381 26.9688V32H277.207V30.9659H277.148C277.068 31.1316 276.936 31.3089 276.75 31.4979C276.564 31.6868 276.317 31.8475 276.009 31.9801C275.701 32.1127 275.325 32.179 274.881 32.179ZM275.06 31.125C275.524 31.125 275.915 31.0339 276.233 30.8516C276.554 30.6693 276.796 30.4339 276.959 30.1456C277.124 29.8572 277.207 29.554 277.207 29.2358V28.1619C277.158 28.2216 277.048 28.2763 276.879 28.326C276.713 28.3724 276.521 28.4138 276.303 28.4503C276.087 28.4834 275.877 28.5133 275.671 28.5398C275.469 28.563 275.305 28.5829 275.179 28.5994C274.874 28.6392 274.589 28.7038 274.324 28.7933C274.062 28.8795 273.85 29.0104 273.687 29.1861C273.528 29.3584 273.449 29.5937 273.449 29.892C273.449 30.2997 273.6 30.608 273.901 30.8168C274.206 31.0223 274.592 31.125 275.06 31.125ZM283.316 32.1591C282.679 32.1591 282.118 31.9983 281.63 31.6768C281.143 31.352 280.762 30.8946 280.487 30.3047C280.212 29.7114 280.074 29.0104 280.074 28.2017C280.074 27.3996 280.212 26.7036 280.487 26.1136C280.762 25.5237 281.145 25.0679 281.635 24.7464C282.126 24.425 282.693 24.2642 283.336 24.2642C283.833 24.2642 284.225 24.3471 284.514 24.5128C284.805 24.6752 285.028 24.8608 285.18 25.0696C285.336 25.2751 285.457 25.4441 285.543 25.5767H285.642V21.8182H286.816V32H285.682V30.8267H285.543C285.457 30.9659 285.334 31.1416 285.175 31.3537C285.016 31.5625 284.789 31.7498 284.494 31.9155C284.199 32.0779 283.806 32.1591 283.316 32.1591ZM283.475 31.1051C283.945 31.1051 284.343 30.9825 284.668 30.7372C284.993 30.4886 285.24 30.1456 285.409 29.7081C285.578 29.2673 285.662 28.7585 285.662 28.1818C285.662 27.6117 285.579 27.1129 285.414 26.6854C285.248 26.2545 285.003 25.9197 284.678 25.6811C284.353 25.4392 283.952 25.3182 283.475 25.3182C282.978 25.3182 282.563 25.4458 282.232 25.701C281.904 25.9529 281.657 26.2959 281.491 26.7301C281.329 27.161 281.247 27.6449 281.247 28.1818C281.247 28.7254 281.33 29.2192 281.496 29.6634C281.665 30.1042 281.914 30.4555 282.242 30.7173C282.573 30.9759 282.984 31.1051 283.475 31.1051ZM289.893 32.0795C289.647 32.0795 289.437 31.9917 289.261 31.8161C289.086 31.6404 288.998 31.4299 288.998 31.1847C288.998 30.9394 289.086 30.7289 289.261 30.5533C289.437 30.3776 289.647 30.2898 289.893 30.2898C290.138 30.2898 290.348 30.3776 290.524 30.5533C290.7 30.7289 290.787 30.9394 290.787 31.1847C290.787 31.3471 290.746 31.4962 290.663 31.6321C290.584 31.768 290.476 31.8774 290.34 31.9602C290.207 32.0398 290.058 32.0795 289.893 32.0795Z" fill="#1F2421"/>
<rect x="0.5" y="0.5" width="601" height="53" rx="12.5" stroke="#443592" stroke-opacity="0.64" stroke-dasharray="4 5"/>
</svg>
