<svg width="44" height="44" viewBox="0 0 44 44" fill="none" xmlns="http://www.w3.org/2000/svg">
<g filter="url(#filter0_dd_160_8675)">
<rect x="4" y="4" width="36" height="36" rx="12" fill="#FFF8FF"/>
<path d="M13 15.75C13 14.3711 14.1211 13.25 15.5 13.25H28C29.3789 13.25 30.5 14.3711 30.5 15.75V28.25C30.5 29.6289 29.3789 30.75 28 30.75H15.5C14.1211 30.75 13 29.6289 13 28.25V15.75ZM15.7461 17.9297C15.3945 18.3125 15.4219 18.9062 15.8047 19.2539L18.8008 22L15.8047 24.7461C15.4219 25.0977 15.3984 25.6875 15.7461 26.0703C16.0938 26.4531 16.6875 26.4766 17.0703 26.1289L20.8203 22.6914C21.0156 22.5156 21.125 22.2617 21.125 22C21.125 21.7383 21.0156 21.4883 20.8203 21.3086L17.0703 17.8711C16.6875 17.5195 16.0938 17.5469 15.7461 17.9297ZM21.4375 25.125C20.918 25.125 20.5 25.543 20.5 26.0625C20.5 26.582 20.918 27 21.4375 27H27.0625C27.582 27 28 26.582 28 26.0625C28 25.543 27.582 25.125 27.0625 25.125H21.4375Z" fill="#AB4ABA"/>
<rect x="4.5" y="4.5" width="35" height="35" rx="11.5" stroke="#F9E5F9"/>
</g>
<defs>
<filter id="filter0_dd_160_8675" x="0" y="0" width="44" height="44" filterUnits="userSpaceOnUse" color-interpolation-filters="sRGB">
<feFlood flood-opacity="0" result="BackgroundImageFix"/>
<feColorMatrix in="SourceAlpha" type="matrix" values="0 0 0 0 0 0 0 0 0 0 0 0 0 0 0 0 0 0 127 0" result="hardAlpha"/>
<feOffset dy="1"/>
<feGaussianBlur stdDeviation="1.5"/>
<feColorMatrix type="matrix" values="0 0 0 0 0.72549 0 0 0 0 0.258824 0 0 0 0 0.752941 0 0 0 0.06 0"/>
<feBlend mode="normal" in2="BackgroundImageFix" result="effect1_dropShadow_160_8675"/>
<feColorMatrix in="SourceAlpha" type="matrix" values="0 0 0 0 0 0 0 0 0 0 0 0 0 0 0 0 0 0 127 0" result="hardAlpha"/>
<feOffset/>
<feGaussianBlur stdDeviation="2"/>
<feColorMatrix type="matrix" values="0 0 0 0 0.72549 0 0 0 0 0.258824 0 0 0 0 0.752941 0 0 0 0.1 0"/>
<feBlend mode="normal" in2="effect1_dropShadow_160_8675" result="effect2_dropShadow_160_8675"/>
<feBlend mode="normal" in="SourceGraphic" in2="effect2_dropShadow_160_8675" result="shape"/>
</filter>
</defs>
</svg>
