<svg width="20" height="20" viewBox="0 0 20 20" fill="none" xmlns="http://www.w3.org/2000/svg">
<rect width="20" height="20" rx="6" fill="#FEEFF6"/>
<path fill-rule="evenodd" clip-rule="evenodd" d="M10.7 7.1125C10.7 8.65884 9.44656 9.9125 7.9 9.9125C6.35344 9.9125 5.1 8.65884 5.1 7.1125C5.1 5.56616 6.35344 4.3125 7.9 4.3125C9.44656 4.3125 10.7 5.56616 10.7 7.1125ZM9.65 7.1125C9.65 6.14759 8.86491 5.3625 7.9 5.3625C6.93531 5.3625 6.15 6.14759 6.15 7.1125C6.15 8.07719 6.93509 8.8625 7.9 8.8625C8.86491 8.8625 9.65 8.07741 9.65 7.1125ZM3 14.7534C3 12.66 4.69684 10.9625 6.79094 10.9625H9.00906C9.3783 10.9625 9.73523 11.0153 10.0727 11.1138C9.79565 11.3861 9.55563 11.6959 9.36087 12.035C9.24578 12.0202 9.12837 12.0125 9.00906 12.0125H6.79094C5.37781 12.0125 4.21144 13.0866 4.06553 14.4625H8.8077C8.83356 14.8271 8.90524 15.179 9.01701 15.5125H3.75819C3.3395 15.5125 3 15.1734 3 14.7534ZM14.9 7.4625C14.9 8.81656 13.8041 9.9125 12.45 9.9125C11.7675 9.9125 11.1528 9.6325 10.709 9.18428C11.139 8.60306 11.4 7.8895 11.4 7.1125C11.4 6.53062 11.2425 5.98878 10.9905 5.50491C11.3991 5.19964 11.9007 5.0125 12.45 5.0125C13.8041 5.0125 14.9 6.10844 14.9 7.4625Z" fill="#E58FB1"/>
<path fill-rule="evenodd" clip-rule="evenodd" d="M13.0625 10.4375C14.874 10.4375 16.3437 11.9072 16.3437 13.7187C16.3437 15.5303 14.874 17 13.0625 17C11.251 17 9.78125 15.5303 9.78125 13.7187C9.78125 11.9072 11.251 10.4375 13.0625 10.4375ZM12.2889 13.0516H13.2138L11.7733 14.4921C11.6315 14.6339 11.6315 14.8659 11.7733 15.0077C11.9151 15.1495 12.1471 15.1495 12.2889 15.0077L13.7294 13.5672L13.7294 14.4921C13.7278 14.6935 13.8921 14.8578 14.0935 14.8562C14.2949 14.8578 14.4593 14.6935 14.4576 14.4921L14.4576 12.6875C14.4593 12.4861 14.2949 12.3217 14.0935 12.3233L12.2889 12.3233C12.0875 12.3217 11.9232 12.4861 11.9248 12.6875C11.9232 12.8889 12.0875 13.0532 12.2889 13.0516Z" fill="#E58FB1"/>
</svg>
