<svg width="260" height="18" viewBox="0 0 260 18" fill="none" xmlns="http://www.w3.org/2000/svg">
<path d="M0.676025 4.91193V3.81818H8.31239V4.91193H5.11068V14H3.87773V4.91193H0.676025Z" fill="#292929"/>
<path d="M12.0605 14.1591C11.3247 14.1591 10.69 13.9967 10.1563 13.6719C9.62603 13.3437 9.21671 12.8864 8.92836 12.2997C8.64332 11.7097 8.5008 11.0237 8.5008 10.2415C8.5008 9.45927 8.64332 8.76988 8.92836 8.17329C9.21671 7.57338 9.61775 7.10606 10.1315 6.7713C10.6485 6.43323 11.2517 6.2642 11.9411 6.2642C12.3389 6.2642 12.7316 6.33049 13.1194 6.46306C13.5072 6.59564 13.8602 6.81107 14.1784 7.10937C14.4965 7.40435 14.7501 7.79545 14.939 8.28266C15.1279 8.76988 15.2224 9.36979 15.2224 10.0824V10.5795H9.33603V9.56534H14.0292C14.0292 9.13446 13.943 8.74999 13.7707 8.41193C13.6017 8.07386 13.3597 7.80705 13.0448 7.6115C12.7333 7.41595 12.3654 7.31818 11.9411 7.31818C11.4738 7.31818 11.0695 7.43418 10.7281 7.66619C10.39 7.89488 10.1298 8.19318 9.94753 8.56107C9.76524 8.92897 9.67409 9.32338 9.67409 9.74431V10.4204C9.67409 10.9972 9.77353 11.486 9.97239 11.8871C10.1746 12.2848 10.4546 12.5881 10.8126 12.7969C11.1705 13.0024 11.5865 13.1051 12.0605 13.1051C12.3687 13.1051 12.6471 13.062 12.8957 12.9758C13.1476 12.8864 13.3647 12.7538 13.547 12.5781C13.7293 12.3991 13.8701 12.1771 13.9695 11.9119L15.1031 12.2301C14.9838 12.6146 14.7832 12.9526 14.5015 13.2443C14.2198 13.5327 13.8718 13.758 13.4575 13.9205C13.0432 14.0795 12.5775 14.1591 12.0605 14.1591Z" fill="#292929"/>
<path d="M20.0195 14.1591C19.3036 14.1591 18.6871 13.9901 18.17 13.652C17.653 13.3139 17.2553 12.8482 16.9768 12.255C16.6984 11.6617 16.5592 10.9839 16.5592 10.2216C16.5592 9.44602 16.7018 8.76159 16.9868 8.16832C17.2751 7.57173 17.6762 7.10606 18.1899 6.7713C18.707 6.43323 19.3102 6.2642 19.9996 6.2642C20.5365 6.2642 21.0204 6.36363 21.4513 6.56249C21.8822 6.76136 22.2351 7.03977 22.5102 7.39772C22.7853 7.75568 22.956 8.17329 23.0223 8.65056H21.849C21.7595 8.30255 21.5607 7.99431 21.2524 7.72585C20.9475 7.45407 20.5365 7.31818 20.0195 7.31818C19.5621 7.31818 19.161 7.43749 18.8163 7.67613C18.475 7.91145 18.2081 8.24455 18.0159 8.67542C17.827 9.10298 17.7325 9.60511 17.7325 10.1818C17.7325 10.7718 17.8253 11.2855 18.0109 11.723C18.1999 12.1605 18.465 12.5002 18.8064 12.7422C19.1511 12.9841 19.5554 13.1051 20.0195 13.1051C20.3244 13.1051 20.6011 13.0521 20.8497 12.946C21.0983 12.84 21.3088 12.6875 21.4811 12.4886C21.6535 12.2898 21.7761 12.0511 21.849 11.7727H23.0223C22.956 12.2235 22.792 12.6295 22.5301 12.9908C22.2716 13.3487 21.9286 13.6338 21.501 13.8459C21.0768 14.0547 20.5829 14.1591 20.0195 14.1591Z" fill="#292929"/>
<path d="M25.8208 9.40624V14H24.6475V3.81818H25.8208V7.55681H25.9202C26.0992 7.1624 26.3677 6.84919 26.7256 6.61718C27.0869 6.38186 27.5675 6.2642 28.1674 6.2642C28.6877 6.2642 29.1435 6.3686 29.5346 6.57741C29.9257 6.7829 30.2289 7.09943 30.4444 7.52698C30.6631 7.95123 30.7725 8.49147 30.7725 9.14772V14H29.5992V9.22727C29.5992 8.62073 29.4418 8.15175 29.1269 7.82031C28.8154 7.48555 28.3828 7.31818 27.8293 7.31818C27.4449 7.31818 27.1002 7.39938 26.7952 7.56178C26.4936 7.72419 26.255 7.96117 26.0793 8.27272C25.907 8.58427 25.8208 8.96212 25.8208 9.40624Z" fill="#292929"/>
<path d="M34.0023 9.40624V14H32.829V6.36363H33.9625V7.55681H34.0619C34.2409 7.16903 34.5127 6.85748 34.8773 6.62215C35.2419 6.38352 35.7125 6.2642 36.2892 6.2642C36.8063 6.2642 37.2587 6.37026 37.6465 6.58238C38.0342 6.79119 38.3359 7.10937 38.5513 7.53693C38.7667 7.96117 38.8744 8.4981 38.8744 9.14772V14H37.7011V9.22727C37.7011 8.62736 37.5454 8.16003 37.2338 7.82528C36.9223 7.48721 36.4947 7.31818 35.9511 7.31818C35.5766 7.31818 35.2419 7.39938 34.9469 7.56178C34.6552 7.72419 34.4249 7.96117 34.2558 8.27272C34.0868 8.58427 34.0023 8.96212 34.0023 9.40624Z" fill="#292929"/>
<path d="M44.0307 14.1591C43.3413 14.1591 42.7364 13.995 42.2161 13.6669C41.699 13.3388 41.2947 12.8797 41.003 12.2898C40.7147 11.6998 40.5705 11.0104 40.5705 10.2216C40.5705 9.42613 40.7147 8.73177 41.003 8.13849C41.2947 7.54521 41.699 7.08451 42.2161 6.75639C42.7364 6.42826 43.3413 6.2642 44.0307 6.2642C44.7201 6.2642 45.3233 6.42826 45.8404 6.75639C46.3607 7.08451 46.7651 7.54521 47.0534 8.13849C47.3451 8.73177 47.4909 9.42613 47.4909 10.2216C47.4909 11.0104 47.3451 11.6998 47.0534 12.2898C46.7651 12.8797 46.3607 13.3388 45.8404 13.6669C45.3233 13.995 44.7201 14.1591 44.0307 14.1591ZM44.0307 13.1051C44.5544 13.1051 44.9853 12.9709 45.3233 12.7024C45.6614 12.4339 45.9116 12.081 46.074 11.6435C46.2364 11.206 46.3176 10.732 46.3176 10.2216C46.3176 9.71117 46.2364 9.23555 46.074 8.79474C45.9116 8.35393 45.6614 7.99763 45.3233 7.72585C44.9853 7.45407 44.5544 7.31818 44.0307 7.31818C43.507 7.31818 43.0762 7.45407 42.7381 7.72585C42.4 7.99763 42.1498 8.35393 41.9874 8.79474C41.825 9.23555 41.7438 9.71117 41.7438 10.2216C41.7438 10.732 41.825 11.206 41.9874 11.6435C42.1498 12.081 42.4 12.4339 42.7381 12.7024C43.0762 12.9709 43.507 13.1051 44.0307 13.1051Z" fill="#292929"/>
<path d="M50.3652 3.81818V14H49.192V3.81818H50.3652Z" fill="#292929"/>
<path d="M55.5265 14.1591C54.8371 14.1591 54.2322 13.995 53.7119 13.6669C53.1948 13.3388 52.7905 12.8797 52.4988 12.2898C52.2104 11.6998 52.0663 11.0104 52.0663 10.2216C52.0663 9.42613 52.2104 8.73177 52.4988 8.13849C52.7905 7.54521 53.1948 7.08451 53.7119 6.75639C54.2322 6.42826 54.8371 6.2642 55.5265 6.2642C56.2159 6.2642 56.8191 6.42826 57.3362 6.75639C57.8565 7.08451 58.2609 7.54521 58.5492 8.13849C58.8409 8.73177 58.9867 9.42613 58.9867 10.2216C58.9867 11.0104 58.8409 11.6998 58.5492 12.2898C58.2609 12.8797 57.8565 13.3388 57.3362 13.6669C56.8191 13.995 56.2159 14.1591 55.5265 14.1591ZM55.5265 13.1051C56.0502 13.1051 56.481 12.9709 56.8191 12.7024C57.1572 12.4339 57.4074 12.081 57.5698 11.6435C57.7322 11.206 57.8134 10.732 57.8134 10.2216C57.8134 9.71117 57.7322 9.23555 57.5698 8.79474C57.4074 8.35393 57.1572 7.99763 56.8191 7.72585C56.481 7.45407 56.0502 7.31818 55.5265 7.31818C55.0028 7.31818 54.5719 7.45407 54.2339 7.72585C53.8958 7.99763 53.6456 8.35393 53.4832 8.79474C53.3208 9.23555 53.2396 9.71117 53.2396 10.2216C53.2396 10.732 53.3208 11.206 53.4832 11.6435C53.6456 12.081 53.8958 12.4339 54.2339 12.7024C54.5719 12.9709 55.0028 13.1051 55.5265 13.1051Z" fill="#292929"/>
<path d="M63.7701 17.0227C63.2034 17.0227 62.7161 16.9498 62.3085 16.804C61.9008 16.6615 61.5611 16.4725 61.2893 16.2372C61.0208 16.0052 60.8071 15.7566 60.648 15.4915L61.5826 14.8352C61.6887 14.9744 61.8229 15.1335 61.9853 15.3125C62.1477 15.4948 62.3698 15.6522 62.6515 15.7848C62.9366 15.9207 63.3094 15.9886 63.7701 15.9886C64.3866 15.9886 64.8954 15.8395 65.2964 15.5412C65.6974 15.2429 65.898 14.7756 65.898 14.1392V12.5881H65.7985C65.7124 12.7273 65.5897 12.8996 65.4306 13.1051C65.2749 13.3073 65.0495 13.4879 64.7545 13.647C64.4628 13.8028 64.0684 13.8807 63.5713 13.8807C62.9548 13.8807 62.4013 13.7348 61.9107 13.4432C61.4235 13.1515 61.0374 12.7273 60.7524 12.1704C60.4706 11.6136 60.3298 10.9375 60.3298 10.142C60.3298 9.35984 60.4673 8.67874 60.7424 8.09872C61.0175 7.51538 61.4003 7.06463 61.8909 6.74644C62.3814 6.42495 62.9482 6.2642 63.5911 6.2642C64.0883 6.2642 64.4827 6.34706 64.7744 6.51278C65.0694 6.67518 65.2947 6.86079 65.4505 7.0696C65.6096 7.27509 65.7322 7.44412 65.8184 7.5767H65.9377V6.36363H67.0713V14.2187C67.0713 14.875 66.9221 15.4086 66.6238 15.8196C66.3288 16.2339 65.9311 16.5372 65.4306 16.7294C64.9335 16.9249 64.38 17.0227 63.7701 17.0227ZM63.7304 12.8267C64.201 12.8267 64.5987 12.719 64.9235 12.5035C65.2483 12.2881 65.4953 11.9782 65.6643 11.5739C65.8333 11.1695 65.9178 10.6856 65.9178 10.1222C65.9178 9.57196 65.835 9.08641 65.6693 8.66548C65.5035 8.24455 65.2583 7.91477 64.9335 7.67613C64.6087 7.43749 64.2076 7.31818 63.7304 7.31818C63.2332 7.31818 62.8189 7.44412 62.4875 7.69602C62.1593 7.94791 61.9124 8.28598 61.7467 8.71022C61.5843 9.13446 61.5031 9.60511 61.5031 10.1222C61.5031 10.6525 61.5859 11.1214 61.7517 11.5291C61.9207 11.9335 62.1693 12.2517 62.4974 12.4837C62.8288 12.7124 63.2398 12.8267 63.7304 12.8267Z" fill="#292929"/>
<path d="M69.8847 16.8636C69.6858 16.8636 69.5085 16.8471 69.3527 16.8139C69.1969 16.7841 69.0892 16.7543 69.0296 16.7244L69.3279 15.6903C69.6129 15.7633 69.8648 15.7898 70.0835 15.7699C70.3023 15.75 70.4962 15.6522 70.6652 15.4766C70.8376 15.3042 70.995 15.0241 71.1375 14.6364L71.3563 14.0398L68.5324 6.36363H69.8051L71.9131 12.4489H71.9926L74.1006 6.36363H75.3733L72.1318 15.1136C71.986 15.508 71.8054 15.8345 71.5899 16.093C71.3745 16.3549 71.1242 16.5488 70.8392 16.6747C70.5575 16.8007 70.2393 16.8636 69.8847 16.8636Z" fill="#292929"/>
<path d="M80.6795 16.8636V6.36363H81.813V7.5767H81.9522C82.0384 7.44412 82.1577 7.27509 82.3101 7.0696C82.4659 6.86079 82.688 6.67518 82.9763 6.51278C83.268 6.34706 83.6624 6.2642 84.1596 6.2642C84.8026 6.2642 85.3693 6.42495 85.8599 6.74644C86.3504 7.06794 86.7332 7.52367 87.0083 8.11363C87.2834 8.70359 87.4209 9.39962 87.4209 10.2017C87.4209 11.0104 87.2834 11.7114 87.0083 12.3047C86.7332 12.8946 86.352 13.352 85.8648 13.6768C85.3776 13.9983 84.8158 14.1591 84.1795 14.1591C83.6889 14.1591 83.2962 14.0779 83.0012 13.9155C82.7062 13.7498 82.4792 13.5625 82.3201 13.3537C82.161 13.1416 82.0384 12.9659 81.9522 12.8267H81.8528V16.8636H80.6795ZM81.8329 10.1818C81.8329 10.7585 81.9174 11.2673 82.0864 11.7081C82.2555 12.1456 82.5024 12.4886 82.8272 12.7372C83.152 12.9825 83.5497 13.1051 84.0204 13.1051C84.5109 13.1051 84.9202 12.9758 85.2483 12.7173C85.5798 12.4555 85.8284 12.1042 85.9941 11.6633C86.1631 11.2192 86.2476 10.7254 86.2476 10.1818C86.2476 9.64488 86.1648 9.16098 85.9991 8.73011C85.8366 8.29592 85.5897 7.95288 85.2583 7.70099C84.9302 7.44578 84.5175 7.31818 84.0204 7.31818C83.5431 7.31818 83.142 7.43915 82.8172 7.6811C82.4924 7.91974 82.2472 8.25449 82.0814 8.68536C81.9157 9.11292 81.8329 9.61174 81.8329 10.1818Z" fill="#292929"/>
<path d="M91.3679 14.179C90.884 14.179 90.4448 14.0878 90.0504 13.9055C89.656 13.7199 89.3428 13.4531 89.1108 13.1051C88.8787 12.7538 88.7627 12.3295 88.7627 11.8324C88.7627 11.3949 88.8489 11.0402 89.0213 10.7685C89.1936 10.4934 89.424 10.2779 89.7123 10.1222C90.0007 9.96638 90.3189 9.85037 90.6669 9.77414C91.0182 9.6946 91.3712 9.63162 91.7258 9.58522C92.1898 9.52556 92.566 9.48082 92.8544 9.45099C93.146 9.41785 93.3582 9.36316 93.4907 9.28693C93.6266 9.2107 93.6946 9.07812 93.6946 8.8892V8.84943C93.6946 8.3589 93.5603 7.97774 93.2919 7.70596C93.0267 7.43418 92.624 7.29829 92.0838 7.29829C91.5236 7.29829 91.0845 7.42092 90.7663 7.66619C90.4481 7.91145 90.2244 8.17329 90.0951 8.4517L88.9815 8.05397C89.1804 7.58996 89.4455 7.22869 89.7769 6.97017C90.1117 6.70833 90.4763 6.52604 90.8707 6.42329C91.2684 6.31723 91.6595 6.2642 92.044 6.2642C92.2893 6.2642 92.571 6.29403 92.8892 6.35369C93.2107 6.41003 93.5206 6.52769 93.8189 6.70667C94.1205 6.88565 94.3707 7.15577 94.5696 7.51704C94.7684 7.87831 94.8679 8.36221 94.8679 8.96874V14H93.6946V12.9659H93.6349C93.5554 13.1316 93.4228 13.3089 93.2372 13.4979C93.0516 13.6868 92.8047 13.8475 92.4964 13.9801C92.1882 14.1127 91.812 14.179 91.3679 14.179ZM91.5468 13.125C92.0109 13.125 92.4019 13.0338 92.7201 12.8516C93.0416 12.6693 93.2836 12.4339 93.446 12.1456C93.6117 11.8572 93.6946 11.554 93.6946 11.2358V10.1619C93.6448 10.2216 93.5355 10.2763 93.3664 10.326C93.2007 10.3724 93.0085 10.4138 92.7897 10.4503C92.5743 10.4834 92.3638 10.5133 92.1583 10.5398C91.9562 10.563 91.7921 10.5829 91.6662 10.5994C91.3612 10.6392 91.0762 10.7038 90.811 10.7933C90.5492 10.8795 90.3371 11.0104 90.1747 11.1861C90.0156 11.3584 89.936 11.5937 89.936 11.892C89.936 12.2997 90.0868 12.6079 90.3885 12.8168C90.6934 13.0222 91.0795 13.125 91.5468 13.125Z" fill="#292929"/>
<path d="M96.9194 14V6.36363H98.0529V7.51704H98.1324C98.2717 7.1392 98.5235 6.83262 98.8881 6.5973C99.2527 6.36197 99.6637 6.24431 100.121 6.24431C100.207 6.24431 100.315 6.24597 100.444 6.24928C100.573 6.2526 100.671 6.25757 100.738 6.2642V7.45738C100.698 7.44744 100.607 7.43252 100.464 7.41264C100.325 7.38944 100.177 7.37784 100.022 7.37784C99.6504 7.37784 99.319 7.45572 99.0273 7.6115C98.739 7.76396 98.5103 7.97608 98.3412 8.24786C98.1755 8.51633 98.0927 8.82291 98.0927 9.16761V14H96.9194Z" fill="#292929"/>
<path d="M105.838 6.36363V7.35795H101.881V6.36363H105.838ZM103.034 4.53409H104.207V11.8125C104.207 12.1439 104.255 12.3925 104.351 12.5582C104.451 12.7206 104.577 12.83 104.729 12.8864C104.885 12.9394 105.049 12.9659 105.221 12.9659C105.351 12.9659 105.457 12.9593 105.54 12.946C105.622 12.9294 105.689 12.9162 105.738 12.9062L105.977 13.9602C105.898 13.9901 105.787 14.0199 105.644 14.0497C105.501 14.0829 105.321 14.0994 105.102 14.0994C104.771 14.0994 104.446 14.0282 104.128 13.8856C103.813 13.7431 103.551 13.526 103.342 13.2344C103.137 12.9427 103.034 12.5748 103.034 12.1307V4.53409Z" fill="#292929"/>
<path d="M108.686 9.40624V14H107.513V6.36363H108.646V7.55681H108.746C108.925 7.16903 109.197 6.85748 109.561 6.62215C109.926 6.38352 110.396 6.2642 110.973 6.2642C111.49 6.2642 111.942 6.37026 112.33 6.58238C112.718 6.79119 113.02 7.10937 113.235 7.53693C113.451 7.96117 113.558 8.4981 113.558 9.14772V14H112.385V9.22727C112.385 8.62736 112.229 8.16003 111.918 7.82528C111.606 7.48721 111.179 7.31818 110.635 7.31818C110.26 7.31818 109.926 7.39938 109.631 7.56178C109.339 7.72419 109.109 7.96117 108.94 8.27272C108.771 8.58427 108.686 8.96212 108.686 9.40624Z" fill="#292929"/>
<path d="M118.814 14.1591C118.078 14.1591 117.443 13.9967 116.91 13.6719C116.38 13.3437 115.97 12.8864 115.682 12.2997C115.397 11.7097 115.254 11.0237 115.254 10.2415C115.254 9.45927 115.397 8.76988 115.682 8.17329C115.97 7.57338 116.371 7.10606 116.885 6.7713C117.402 6.43323 118.005 6.2642 118.695 6.2642C119.092 6.2642 119.485 6.33049 119.873 6.46306C120.261 6.59564 120.614 6.81107 120.932 7.10937C121.25 7.40435 121.504 7.79545 121.693 8.28266C121.881 8.76988 121.976 9.36979 121.976 10.0824V10.5795H116.09V9.56534H120.783C120.783 9.13446 120.697 8.74999 120.524 8.41193C120.355 8.07386 120.113 7.80705 119.798 7.6115C119.487 7.41595 119.119 7.31818 118.695 7.31818C118.227 7.31818 117.823 7.43418 117.482 7.66619C117.144 7.89488 116.883 8.19318 116.701 8.56107C116.519 8.92897 116.428 9.32338 116.428 9.74431V10.4204C116.428 10.9972 116.527 11.486 116.726 11.8871C116.928 12.2848 117.208 12.5881 117.566 12.7969C117.924 13.0024 118.34 13.1051 118.814 13.1051C119.122 13.1051 119.401 13.062 119.649 12.9758C119.901 12.8864 120.118 12.7538 120.3 12.5781C120.483 12.3991 120.624 12.1771 120.723 11.9119L121.857 12.2301C121.737 12.6146 121.537 12.9526 121.255 13.2443C120.973 13.5327 120.625 13.758 120.211 13.9205C119.797 14.0795 119.331 14.1591 118.814 14.1591Z" fill="#292929"/>
<path d="M123.671 14V6.36363H124.804V7.51704H124.884C125.023 7.1392 125.275 6.83262 125.639 6.5973C126.004 6.36197 126.415 6.24431 126.872 6.24431C126.959 6.24431 127.066 6.24597 127.196 6.24928C127.325 6.2526 127.423 6.25757 127.489 6.2642V7.45738C127.449 7.44744 127.358 7.43252 127.215 7.41264C127.076 7.38944 126.929 7.37784 126.773 7.37784C126.402 7.37784 126.07 7.45572 125.779 7.6115C125.49 7.76396 125.262 7.97608 125.093 8.24786C124.927 8.51633 124.844 8.82291 124.844 9.16761V14H123.671Z" fill="#292929"/>
<path d="M151.111 7.67594C152.563 6.98432 153.3 5.83192 153.3 4.19521C153.3 2.95047 152.816 1.93635 151.894 1.15262C150.972 0.391758 149.589 0 147.791 0H140V16.4122H148.022C149.958 16.4122 151.433 15.9973 152.448 15.1674C153.462 14.3375 153.969 13.162 153.969 11.6408C153.969 10.7878 153.716 10.004 153.208 9.26648C152.701 8.52891 151.987 7.99866 151.111 7.67594ZM147.538 3.11184C148.137 3.11184 148.598 3.2732 148.921 3.57284C149.243 3.89557 149.428 4.31062 149.428 4.81758C149.428 5.37091 149.243 5.80883 148.921 6.13156C148.598 6.45428 148.137 6.61565 147.538 6.61565H143.896V3.11184H147.538ZM143.896 13.3003V9.56612H147.791C149.22 9.56612 149.958 10.1885 149.958 11.4332C149.958 12.0325 149.751 12.4935 149.382 12.8162C149.013 13.139 148.483 13.3003 147.791 13.3003H143.896Z" fill="#202020"/>
<path d="M159.035 16.5045C159.635 16.5045 160.165 16.4814 160.603 16.4122V13.7382H159.796C159.358 13.7382 159.058 13.6692 158.897 13.5309C158.713 13.3927 158.643 13.1159 158.643 12.701V0H155.047V13.0928C155.047 14.2916 155.347 15.1674 155.992 15.6977C156.615 16.2508 157.629 16.5045 159.035 16.5045Z" fill="#202020"/>
<path d="M167.15 16.6894C169.04 16.6894 170.538 16.136 171.691 14.9836C172.797 13.8772 173.374 12.3556 173.374 10.4655C173.374 8.57528 172.797 7.05398 171.691 5.92445C170.561 4.81799 169.04 4.24179 167.15 4.24179C165.237 4.24179 163.715 4.81799 162.609 5.92445C161.456 7.07707 160.903 8.57528 160.903 10.4655C160.903 12.3556 161.456 13.8541 162.609 14.9836C163.738 16.136 165.26 16.6894 167.15 16.6894ZM167.15 13.8079C166.297 13.8079 165.651 13.5314 165.213 12.9551C164.752 12.4018 164.545 11.5719 164.545 10.4655C164.545 9.38209 164.752 8.55241 165.213 7.97599C165.651 7.42288 166.297 7.12323 167.15 7.12323C167.98 7.12323 168.602 7.42288 169.063 7.97599C169.501 8.55241 169.731 9.38209 169.731 10.4655C169.731 11.5719 169.501 12.4018 169.063 12.9551C168.602 13.5314 167.98 13.8079 167.15 13.8079Z" fill="#202020"/>
<path d="M180.24 16.6894C181.899 16.6894 183.259 16.2512 184.343 15.3523C185.403 14.4534 186.002 13.2548 186.118 11.7333H182.545C182.383 13.0703 181.623 13.7387 180.24 13.7387C178.58 13.7387 177.773 12.6553 177.773 10.4655C177.773 8.27564 178.58 7.16918 180.24 7.16918C181.531 7.16918 182.268 7.79155 182.476 8.99033H186.049C185.864 7.53807 185.265 6.38545 184.228 5.53269C183.19 4.67971 181.853 4.24179 180.24 4.24179C178.373 4.24179 176.897 4.81799 175.791 5.92445C174.684 7.05398 174.131 8.57528 174.131 10.4655C174.131 12.3556 174.684 13.8541 175.791 14.9836C176.897 16.136 178.373 16.6894 180.24 16.6894Z" fill="#202020"/>
<path d="M199.432 16.4122L194.707 9.1282L199.178 4.51793H195.052L190.65 9.22031V0H187.123V16.4122H190.65V13.162L192.263 11.5025L195.329 16.4122H199.432Z" fill="#202020"/>
<path d="M214.214 4.24179C212.693 4.24179 211.472 4.95627 210.504 6.38545C209.812 4.95627 208.59 4.24179 206.815 4.24179C205.432 4.24179 204.303 4.91032 203.427 6.20122V4.51835H199.923V16.4126H203.519V9.8431C203.519 9.01342 203.703 8.39105 204.072 7.95291C204.441 7.53807 204.948 7.30746 205.593 7.30746C206.769 7.30746 207.369 7.97599 207.369 9.31306V16.4126H210.965V9.8431C210.965 9.01342 211.149 8.39105 211.518 7.95291C211.887 7.53807 212.37 7.30746 213.016 7.30746C214.192 7.30746 214.791 7.97599 214.791 9.31306V16.4126H218.387V8.69069C218.387 7.28459 218.018 6.20101 217.281 5.41749C216.543 4.63376 215.506 4.24179 214.214 4.24179Z" fill="#202020"/>
<path d="M231.564 16.4126C231.241 15.9516 231.08 15.2371 231.08 14.2228V7.90696C231.08 5.46344 229.305 4.24179 225.778 4.24179C222.182 4.24179 220.292 5.62481 220.084 8.36797H223.657C223.703 7.76868 223.888 7.37671 224.187 7.14632C224.487 6.91571 225.018 6.80051 225.755 6.80051C226.954 6.80051 227.576 7.21535 227.576 7.99908C227.576 8.69069 227.046 9.08245 226.032 9.17478L224.164 9.33614C221.053 9.6127 219.508 10.8344 219.508 13.0473C219.508 14.1999 219.9 15.0757 220.684 15.7212C221.468 16.3666 222.528 16.6894 223.842 16.6894C225.571 16.6894 226.838 16.1591 227.645 15.0757C227.645 15.6288 227.76 16.067 227.945 16.4126H231.564ZM224.925 14.2689C224.372 14.2689 223.934 14.1537 223.634 13.9C223.312 13.6696 223.173 13.3238 223.173 12.909C223.173 12.0791 223.749 11.6181 224.902 11.4798L226.377 11.3184C226.954 11.2492 227.345 11.0878 227.576 10.8574V11.7333C227.576 12.5863 227.322 13.2317 226.861 13.6465C226.377 14.0614 225.732 14.2689 224.925 14.2689Z" fill="#202020"/>
<path d="M236.932 4.51751V0.990616H233.336V4.51751H231.561V7.14526H233.336V16.4117H236.932V7.14526H238.822V4.51751H236.932Z" fill="#202020"/>
<path d="M251.185 10.8113C251.185 8.82897 250.632 7.21535 249.525 6.01678C248.373 4.84108 246.898 4.24179 245.053 4.24179C243.186 4.24179 241.711 4.81799 240.605 5.94753C239.475 7.07707 238.922 8.57528 238.922 10.4655C238.922 12.3556 239.475 13.8541 240.628 14.9836C241.757 16.136 243.256 16.6894 245.1 16.6894C246.552 16.6894 247.797 16.3435 248.857 15.6288C249.894 14.9144 250.586 13.9462 250.908 12.7015H247.497C247.059 13.6004 246.252 14.0385 245.1 14.0385C244.362 14.0385 243.74 13.831 243.279 13.3931C242.795 12.978 242.495 12.3556 242.38 11.526H251.185V10.8113ZM245.008 6.89262C245.722 6.89262 246.321 7.10015 246.782 7.51499C247.243 7.93005 247.52 8.50625 247.658 9.24381H242.403C242.656 7.67635 243.532 6.89262 245.008 6.89262Z" fill="#202020"/>
<path d="M254.082 2.09835C254.461 1.91801 254.654 1.6175 254.654 1.19037C254.654 0.8657 254.527 0.601221 254.287 0.396713C254.046 0.198246 253.685 0.095993 253.216 0.095993H251.184V4.37749H253.276C253.782 4.37749 254.167 4.2692 254.431 4.05282C254.696 3.83624 254.828 3.52969 254.828 3.13276C254.828 2.91034 254.762 2.70584 254.63 2.51341C254.497 2.32098 254.311 2.1827 254.082 2.09835ZM253.15 0.907766C253.307 0.907766 253.427 0.949833 253.511 1.02814C253.595 1.11227 253.644 1.22057 253.644 1.35281C253.644 1.49713 253.595 1.61146 253.511 1.69559C253.427 1.77973 253.307 1.82179 253.15 1.82179H252.2V0.907766H253.15ZM252.2 3.56572V2.5915H253.216C253.589 2.5915 253.782 2.75394 253.782 3.07861C253.782 3.23501 253.727 3.35517 253.631 3.43952C253.535 3.52365 253.397 3.56572 253.216 3.56572H252.2Z" fill="#202020"/>
<path d="M257.113 4.47393C257.654 4.47393 258.117 4.32357 258.496 4.0168C258.869 3.7163 259.085 3.28312 259.151 2.73H258.135C258.087 3.00656 257.966 3.21711 257.786 3.36747C257.6 3.52387 257.377 3.59592 257.113 3.59592C256.764 3.59592 256.499 3.48159 256.313 3.24106C256.127 3.00656 256.036 2.66982 256.036 2.23686C256.036 1.8039 256.127 1.47319 256.313 1.23265C256.499 0.998161 256.764 0.878002 257.113 0.878002C257.365 0.878002 257.576 0.944014 257.75 1.07647C257.924 1.20871 258.045 1.38905 258.111 1.62959H259.139C259.061 1.1125 258.832 0.70952 258.459 0.42088C258.087 0.14432 257.642 0 257.113 0C256.457 0 255.94 0.204508 255.555 0.601227C255.17 1.0042 254.978 1.5515 254.978 2.23686C254.978 2.92243 255.17 3.46368 255.567 3.86644C255.958 4.27546 256.475 4.47393 257.113 4.47393Z" fill="#202020"/>
</svg>
