<svg width="40" height="14" viewBox="0 0 40 14" fill="none" xmlns="http://www.w3.org/2000/svg">
<rect width="39.0526" height="14" rx="4" fill="#F6673E"/>
<path d="M9.14304 5.7079C9.11373 5.4124 8.98796 5.18283 8.76572 5.01921C8.54348 4.85558 8.24187 4.77377 7.86089 4.77377C7.60202 4.77377 7.38344 4.8104 7.20516 4.88367C7.02688 4.95449 6.89012 5.0534 6.79488 5.18039C6.70207 5.30739 6.65567 5.45148 6.65567 5.61266C6.65079 5.74698 6.67887 5.8642 6.73993 5.96433C6.80342 6.06446 6.89012 6.15116 7.00002 6.22443C7.10992 6.29525 7.23691 6.35753 7.381 6.41125C7.52509 6.46254 7.67895 6.5065 7.84257 6.54313L8.51662 6.70432C8.84387 6.77758 9.14426 6.87527 9.41778 6.99738C9.69131 7.11949 9.9282 7.26968 10.1285 7.44796C10.3287 7.62624 10.4838 7.83627 10.5937 8.07805C10.706 8.31982 10.7634 8.59701 10.7659 8.90961C10.7634 9.36874 10.6462 9.76682 10.4142 10.1038C10.1846 10.4384 9.85249 10.6985 9.41778 10.8841C8.98552 11.0673 8.46411 11.1589 7.85356 11.1589C7.2479 11.1589 6.72039 11.0661 6.27103 10.8805C5.82411 10.6948 5.47488 10.4201 5.22333 10.0562C4.97423 9.68989 4.84357 9.23686 4.83136 8.69714H6.36627C6.38337 8.94868 6.45541 9.15871 6.58241 9.32722C6.71184 9.49329 6.88402 9.61906 7.09893 9.70454C7.31628 9.78757 7.56172 9.82909 7.83525 9.82909C8.10389 9.82909 8.33712 9.79002 8.53493 9.71187C8.73519 9.63372 8.89027 9.52504 9.00017 9.38584C9.11007 9.24663 9.16502 9.08667 9.16502 8.90595C9.16502 8.73744 9.11495 8.59579 9.01482 8.48101C8.91714 8.36622 8.77305 8.26854 8.58256 8.18794C8.39451 8.10735 8.16372 8.03409 7.8902 7.96815L7.07329 7.763C6.44076 7.60915 5.94133 7.36859 5.57501 7.04134C5.20868 6.71408 5.02673 6.27327 5.02918 5.71889C5.02673 5.26465 5.14762 4.86779 5.39184 4.52833C5.6385 4.18887 5.97674 3.92389 6.40657 3.7334C6.83639 3.54291 7.32483 3.44766 7.87188 3.44766C8.4287 3.44766 8.91469 3.54291 9.32986 3.7334C9.74748 3.92389 10.0723 4.18887 10.3043 4.52833C10.5363 4.86779 10.656 5.26098 10.6633 5.7079H9.14304Z" fill="#FCFCFC"/>
<path d="M18.7345 7.30143C18.7345 8.11956 18.5794 8.81559 18.2692 9.3895C17.9615 9.96341 17.5415 10.4018 17.0091 10.7046C16.4791 11.005 15.8832 11.1552 15.2214 11.1552C14.5547 11.1552 13.9563 11.0038 13.4264 10.701C12.8964 10.3981 12.4776 9.95975 12.1699 9.38584C11.8621 8.81192 11.7083 8.11712 11.7083 7.30143C11.7083 6.4833 11.8621 5.78728 12.1699 5.21336C12.4776 4.63945 12.8964 4.2023 13.4264 3.90191C13.9563 3.59908 14.5547 3.44766 15.2214 3.44766C15.8832 3.44766 16.4791 3.59908 17.0091 3.90191C17.5415 4.2023 17.9615 4.63945 18.2692 5.21336C18.5794 5.78728 18.7345 6.4833 18.7345 7.30143ZM17.1263 7.30143C17.1263 6.77148 17.0469 6.32456 16.8882 5.96067C16.7319 5.59679 16.5108 5.32082 16.2251 5.13277C15.9394 4.94472 15.6048 4.8507 15.2214 4.8507C14.838 4.8507 14.5034 4.94472 14.2176 5.13277C13.9319 5.32082 13.7097 5.59679 13.5509 5.96067C13.3946 6.32456 13.3165 6.77148 13.3165 7.30143C13.3165 7.83138 13.3946 8.2783 13.5509 8.64219C13.7097 9.00608 13.9319 9.28204 14.2176 9.47009C14.5034 9.65814 14.838 9.75216 15.2214 9.75216C15.6048 9.75216 15.9394 9.65814 16.2251 9.47009C16.5108 9.28204 16.7319 9.00608 16.8882 8.64219C17.0469 8.2783 17.1263 7.83138 17.1263 7.30143Z" fill="#FCFCFC"/>
<path d="M26.8111 7.30143C26.8111 8.11956 26.656 8.81559 26.3459 9.3895C26.0382 9.96341 25.6181 10.4018 25.0857 10.7046C24.5558 11.005 23.9599 11.1552 23.298 11.1552C22.6313 11.1552 22.033 11.0038 21.503 10.701C20.9731 10.3981 20.5542 9.95975 20.2465 9.38584C19.9388 8.81192 19.7849 8.11712 19.7849 7.30143C19.7849 6.4833 19.9388 5.78728 20.2465 5.21336C20.5542 4.63945 20.9731 4.2023 21.503 3.90191C22.033 3.59908 22.6313 3.44766 23.298 3.44766C23.9599 3.44766 24.5558 3.59908 25.0857 3.90191C25.6181 4.2023 26.0382 4.63945 26.3459 5.21336C26.656 5.78728 26.8111 6.4833 26.8111 7.30143ZM25.2029 7.30143C25.2029 6.77148 25.1236 6.32456 24.9648 5.96067C24.8085 5.59679 24.5875 5.32082 24.3018 5.13277C24.016 4.94472 23.6815 4.8507 23.298 4.8507C22.9146 4.8507 22.58 4.94472 22.2943 5.13277C22.0086 5.32082 21.7863 5.59679 21.6276 5.96067C21.4713 6.32456 21.3931 6.77148 21.3931 7.30143C21.3931 7.83138 21.4713 8.2783 21.6276 8.64219C21.7863 9.00608 22.0086 9.28204 22.2943 9.47009C22.58 9.65814 22.9146 9.75216 23.298 9.75216C23.6815 9.75216 24.016 9.65814 24.3018 9.47009C24.5875 9.28204 24.8085 9.00608 24.9648 8.64219C25.1236 8.2783 25.2029 7.83138 25.2029 7.30143Z" fill="#FCFCFC"/>
<path d="M34.2687 3.55023V11.0526H32.8986L29.6346 6.33066H29.5797V11.0526H27.9935V3.55023H29.3855L32.6239 8.26854H32.6898V3.55023H34.2687Z" fill="#FCFCFC"/>
</svg>
