<svg width="12" height="12" viewBox="0 0 12 12" fill="none" xmlns="http://www.w3.org/2000/svg">
<path d="M11.4646 9.76135L7.13857 1.10469C7.0326 0.893504 6.86998 0.715955 6.66889 0.591881C6.46781 0.467808 6.23619 0.4021 5.9999 0.4021C5.76362 0.4021 5.532 0.467808 5.33091 0.591881C5.12983 0.715955 4.96721 0.893504 4.86124 1.10469L0.535238 9.76135C0.43796 9.95519 0.391971 10.1707 0.401658 10.3874C0.411344 10.604 0.476383 10.8146 0.590571 10.999C0.704759 11.1834 0.864286 11.3354 1.05393 11.4407C1.24358 11.5459 1.45703 11.6007 1.6739 11.6H10.3259C10.5428 11.6007 10.7562 11.5459 10.9459 11.4407C11.1355 11.3354 11.2951 11.1834 11.4092 10.999C11.5234 10.8146 11.5885 10.604 11.5982 10.3874C11.6078 10.1707 11.5618 9.95519 11.4646 9.76135ZM5.9999 9.26669C5.90761 9.26669 5.81738 9.23932 5.74064 9.18804C5.6639 9.13676 5.60408 9.06388 5.56876 8.9786C5.53344 8.89333 5.5242 8.7995 5.5422 8.70898C5.56021 8.61845 5.60466 8.5353 5.66992 8.47004C5.73519 8.40477 5.81834 8.36033 5.90886 8.34232C5.99939 8.32431 6.09322 8.33355 6.17849 8.36888C6.26376 8.4042 6.33665 8.46401 6.38792 8.54075C6.4392 8.6175 6.46657 8.70772 6.46657 8.80002C6.46657 8.92379 6.4174 9.04249 6.32989 9.13C6.24237 9.21752 6.12367 9.26669 5.9999 9.26669ZM6.46657 6.93335C6.46657 7.05712 6.4174 7.17582 6.32989 7.26334C6.24237 7.35085 6.12367 7.40002 5.9999 7.40002C5.87614 7.40002 5.75744 7.35085 5.66992 7.26334C5.5824 7.17582 5.53324 7.05712 5.53324 6.93335V4.60002C5.53324 4.47625 5.5824 4.35755 5.66992 4.27004C5.75744 4.18252 5.87614 4.13335 5.9999 4.13335C6.12367 4.13335 6.24237 4.18252 6.32989 4.27004C6.4174 4.35755 6.46657 4.47625 6.46657 4.60002V6.93335Z" fill="#E5484D"/>
</svg>
